<svg xmlns="http://www.w3.org/2000/svg" xmlns:xlink="http://www.w3.org/1999/xlink" width="500" zoomAndPan="magnify" viewBox="0 0 375 374.999991" height="500" preserveAspectRatio="xMidYMid meet" version="1.0"><defs><g/><clipPath id="7b6e5a73a9"><path d="M 84.914062 84.871094 L 290.414062 84.871094 L 290.414062 290.371094 L 84.914062 290.371094 Z M 84.914062 84.871094 " clip-rule="nonzero"/></clipPath><clipPath id="42665ed2e7"><path d="M 129.070312 129.175781 L 246 129.175781 L 246 210.175781 L 129.070312 210.175781 Z M 129.070312 129.175781 " clip-rule="nonzero"/></clipPath><clipPath id="7c95114991"><path d="M 129.070312 225.144531 L 246 225.144531 L 246 246.144531 L 129.070312 246.144531 Z M 129.070312 225.144531 " clip-rule="nonzero"/></clipPath><clipPath id="c2549dba35"><path d="M 94.75 159.1875 L 277.75 159.1875 L 277.75 225 L 94.75 225 Z M 94.75 159.1875 " clip-rule="nonzero"/></clipPath></defs><path fill="#a6935f" d="M 265.921875 152.800781 C 248.546875 120.53125 224.078125 74.523438 186.210938 63.984375 C 153.910156 55.011719 108.03125 91.980469 88.324219 116.191406 C 65.207031 144.527344 54.308594 184.972656 67.230469 218.398438 C 76.839844 243.195312 97.804688 261.078125 119.550781 275.402344 C 146.828125 293.347656 177.957031 307.671875 210.8125 306.398438 C 243.671875 305.125 278.0625 284.765625 288.402344 252.285156 C 299.21875 218.367188 282.320312 183.339844 265.921875 152.800781 Z M 265.921875 152.800781 " fill-opacity="1" fill-rule="nonzero"/><path fill="#f6efdc" d="M 314.328125 148.296875 C 308.0625 94.933594 234.648438 71.652344 189.214844 75.535156 C 140.449219 79.695312 91.328125 114.949219 74.554688 164.316406 C 63.578125 196.652344 67.066406 233.015625 83.789062 260.214844 C 112.960938 307.65625 180.175781 320.183594 231.109375 292.304688 C 275.011719 268.289062 320.609375 201.285156 314.328125 148.296875 Z M 314.328125 148.296875 " fill-opacity="1" fill-rule="nonzero"/><g clip-path="url(#7b6e5a73a9)"><path fill="#a6935f" d="M 187.539062 290.125 C 130.96875 290.125 84.914062 244.066406 84.914062 187.496094 C 84.914062 130.925781 130.96875 84.871094 187.539062 84.871094 C 244.109375 84.871094 290.167969 130.925781 290.167969 187.496094 C 290.167969 244.066406 244.109375 290.125 187.539062 290.125 Z M 187.539062 86.386719 C 131.777344 86.386719 86.429688 131.734375 86.429688 187.496094 C 86.429688 243.257812 131.777344 288.605469 187.539062 288.605469 C 243.300781 288.605469 288.648438 243.257812 288.648438 187.496094 C 288.648438 131.734375 243.300781 86.386719 187.539062 86.386719 Z M 187.539062 86.386719 " fill-opacity="1" fill-rule="nonzero"/></g><g fill="#a6935f" fill-opacity="1"><g transform="translate(120.193951, 165.894729)"><g><path d="M -0.484375 -3.90625 C -0.0976562 -3.75 0.207031 -3.625 0.4375 -3.53125 C 0.664062 -3.445312 0.851562 -3.390625 1 -3.359375 C 1.15625 -3.304688 1.269531 -3.269531 1.34375 -3.25 C 1.03125 -2.488281 0.632812 -1.972656 0.15625 -1.703125 C -0.320312 -1.441406 -0.929688 -1.460938 -1.671875 -1.765625 L -9.5 -5 C -10.082031 -5.25 -10.523438 -5.5625 -10.828125 -5.9375 C -11.140625 -6.3125 -11.335938 -6.726562 -11.421875 -7.1875 C -11.515625 -7.644531 -11.507812 -8.148438 -11.40625 -8.703125 C -11.3125 -9.253906 -11.160156 -9.832031 -10.953125 -10.4375 C -10.804688 -10.820312 -10.613281 -11.21875 -10.375 -11.625 C -10.144531 -12.039062 -9.867188 -12.429688 -9.546875 -12.796875 C -9.234375 -13.160156 -8.890625 -13.488281 -8.515625 -13.78125 C -8.140625 -14.070312 -7.726562 -14.296875 -7.28125 -14.453125 C -6.832031 -14.609375 -6.363281 -14.679688 -5.875 -14.671875 C -5.394531 -14.660156 -4.898438 -14.539062 -4.390625 -14.3125 C -3.671875 -13.976562 -3.113281 -13.472656 -2.71875 -12.796875 C -2.332031 -12.128906 -2.1875 -11.332031 -2.28125 -10.40625 C -2.070312 -10.644531 -1.816406 -10.816406 -1.515625 -10.921875 C -1.222656 -11.035156 -0.894531 -11.109375 -0.53125 -11.140625 C -0.164062 -11.171875 0.222656 -11.1875 0.640625 -11.1875 C 1.066406 -11.195312 1.5 -11.21875 1.9375 -11.25 C 2.28125 -11.269531 2.597656 -11.3125 2.890625 -11.375 C 3.179688 -11.4375 3.445312 -11.5 3.6875 -11.5625 C 3.9375 -11.632812 4.171875 -11.71875 4.390625 -11.8125 C 4.453125 -11.664062 4.492188 -11.507812 4.515625 -11.34375 C 4.515625 -11.1875 4.492188 -11.003906 4.453125 -10.796875 C 4.421875 -10.585938 4.332031 -10.363281 4.1875 -10.125 C 4.019531 -9.851562 3.816406 -9.617188 3.578125 -9.421875 C 3.347656 -9.234375 3.039062 -9.070312 2.65625 -8.9375 C 2.269531 -8.8125 1.785156 -8.707031 1.203125 -8.625 C 0.617188 -8.539062 -0.09375 -8.46875 -0.9375 -8.40625 C -1.414062 -8.351562 -1.816406 -8.21875 -2.140625 -8 C -2.472656 -7.78125 -2.789062 -7.488281 -3.09375 -7.125 C -3.15625 -7.0625 -3.203125 -6.992188 -3.234375 -6.921875 C -3.273438 -6.859375 -3.320312 -6.800781 -3.375 -6.75 C -3.414062 -6.675781 -3.484375 -6.566406 -3.578125 -6.421875 C -3.679688 -6.273438 -3.78125 -6.128906 -3.875 -5.984375 C -3.976562 -5.828125 -4.09375 -5.648438 -4.21875 -5.453125 Z M -9.140625 -9.6875 C -9.242188 -9.289062 -9.300781 -8.953125 -9.3125 -8.671875 C -9.320312 -8.398438 -9.289062 -8.164062 -9.21875 -7.96875 C -9.144531 -7.78125 -9.039062 -7.617188 -8.90625 -7.484375 C -8.769531 -7.359375 -8.625 -7.265625 -8.46875 -7.203125 C -8.300781 -7.128906 -8.082031 -7.035156 -7.8125 -6.921875 C -7.550781 -6.816406 -7.285156 -6.710938 -7.015625 -6.609375 C -6.742188 -6.503906 -6.492188 -6.40625 -6.265625 -6.3125 C -6.046875 -6.21875 -5.894531 -6.15625 -5.8125 -6.125 C -5.632812 -6.394531 -5.460938 -6.664062 -5.296875 -6.9375 C -5.160156 -7.164062 -5.015625 -7.414062 -4.859375 -7.6875 C -4.703125 -7.96875 -4.5625 -8.253906 -4.4375 -8.546875 C -4.125 -9.316406 -4.023438 -9.988281 -4.140625 -10.5625 C -4.265625 -11.144531 -4.664062 -11.625 -5.34375 -12 C -5.78125 -12.238281 -6.195312 -12.332031 -6.59375 -12.28125 C -7 -12.226562 -7.363281 -12.082031 -7.6875 -11.84375 C -8.007812 -11.601562 -8.296875 -11.285156 -8.546875 -10.890625 C -8.804688 -10.503906 -9.003906 -10.101562 -9.140625 -9.6875 Z M -9.140625 -9.6875 "/></g></g></g><g fill="#a6935f" fill-opacity="1"><g transform="translate(127.309845, 150.29123)"><g><path d="M -10.359375 -12.046875 C -10.429688 -12.390625 -10.5 -12.738281 -10.5625 -13.09375 C -10.632812 -13.394531 -10.695312 -13.722656 -10.75 -14.078125 C -10.8125 -14.441406 -10.859375 -14.800781 -10.890625 -15.15625 C -10.941406 -15.601562 -10.929688 -15.972656 -10.859375 -16.265625 C -10.785156 -16.566406 -10.695312 -16.816406 -10.59375 -17.015625 C -10.46875 -17.253906 -10.316406 -17.441406 -10.140625 -17.578125 C -9.679688 -17.410156 -9.367188 -17.117188 -9.203125 -16.703125 C -9.046875 -16.296875 -8.992188 -15.832031 -9.046875 -15.3125 C -9.109375 -14.789062 -9.253906 -14.238281 -9.484375 -13.65625 C -9.722656 -13.070312 -10.015625 -12.535156 -10.359375 -12.046875 Z M 4.3125 -9.671875 L 4.421875 -9.578125 C 4.785156 -9.328125 5.023438 -9.066406 5.140625 -8.796875 C 5.273438 -8.523438 5.320312 -8.234375 5.28125 -7.921875 C 5.25 -7.640625 5.144531 -7.359375 4.96875 -7.078125 C 4.789062 -6.796875 4.632812 -6.546875 4.5 -6.328125 C 3.832031 -5.304688 3.171875 -4.488281 2.515625 -3.875 C 1.867188 -3.269531 1.171875 -2.882812 0.421875 -2.71875 C -0.316406 -2.5625 -1.117188 -2.617188 -1.984375 -2.890625 C -2.847656 -3.171875 -3.816406 -3.695312 -4.890625 -4.46875 L -7.96875 -6.65625 C -8.707031 -7.1875 -9.210938 -7.71875 -9.484375 -8.25 C -9.617188 -8.519531 -9.691406 -8.78125 -9.703125 -9.03125 C -9.710938 -9.289062 -9.691406 -9.554688 -9.640625 -9.828125 C -9.585938 -10.015625 -9.523438 -10.195312 -9.453125 -10.375 C -9.378906 -10.550781 -9.285156 -10.734375 -9.171875 -10.921875 C -9.046875 -11.171875 -8.894531 -11.425781 -8.71875 -11.6875 C -8.550781 -11.945312 -8.375 -12.210938 -8.1875 -12.484375 L -7.15625 -13.921875 C -6.675781 -14.609375 -6.335938 -15.113281 -6.140625 -15.4375 C -5.941406 -15.757812 -5.816406 -15.960938 -5.765625 -16.046875 L -5.734375 -16.078125 L -5.671875 -16.1875 L -5.578125 -16.109375 C -5.210938 -15.859375 -4.96875 -15.585938 -4.84375 -15.296875 C -4.726562 -15.023438 -4.6875 -14.742188 -4.71875 -14.453125 C -4.757812 -14.148438 -4.851562 -13.863281 -5 -13.59375 C -5.15625 -13.332031 -5.320312 -13.082031 -5.5 -12.84375 L -7.46875 -10.0625 C -7.5 -9.988281 -7.523438 -9.925781 -7.546875 -9.875 C -7.578125 -9.820312 -7.582031 -9.773438 -7.5625 -9.734375 C -7.59375 -9.640625 -7.585938 -9.554688 -7.546875 -9.484375 C -7.523438 -9.410156 -7.472656 -9.332031 -7.390625 -9.25 C -7.304688 -9.175781 -7.207031 -9.097656 -7.09375 -9.015625 L -5.078125 -7.65625 L -2.21875 -11.671875 C -1.71875 -11.316406 -1.414062 -10.898438 -1.3125 -10.421875 C -1.21875 -9.941406 -1.351562 -9.445312 -1.71875 -8.9375 L -3.453125 -6.484375 C -2.742188 -5.941406 -2.101562 -5.554688 -1.53125 -5.328125 C -0.957031 -5.109375 -0.4375 -5.03125 0.03125 -5.09375 C 0.5 -5.164062 0.941406 -5.375 1.359375 -5.71875 C 1.773438 -6.0625 2.195312 -6.535156 2.625 -7.140625 C 3.125 -7.847656 3.5 -8.398438 3.75 -8.796875 C 4.007812 -9.191406 4.171875 -9.4375 4.234375 -9.53125 L 4.265625 -9.5625 Z M 4.3125 -9.671875 "/></g></g></g><g fill="#a6935f" fill-opacity="1"><g transform="translate(136.264087, 138.540743)"><g><path d="M 1.140625 -3.71875 C 1.410156 -3.425781 1.632812 -3.191406 1.8125 -3.015625 C 2 -2.835938 2.144531 -2.695312 2.25 -2.59375 C 2.375 -2.488281 2.46875 -2.410156 2.53125 -2.359375 C 1.9375 -1.804688 1.363281 -1.503906 0.8125 -1.453125 C 0.257812 -1.398438 -0.289062 -1.664062 -0.84375 -2.25 L -6.40625 -8.203125 C -7.03125 -8.867188 -7.410156 -9.488281 -7.546875 -10.0625 C -7.617188 -10.351562 -7.632812 -10.625 -7.59375 -10.875 C -7.5625 -11.125 -7.488281 -11.378906 -7.375 -11.640625 C -7.300781 -11.796875 -7.210938 -11.957031 -7.109375 -12.125 C -7.003906 -12.289062 -6.875 -12.453125 -6.71875 -12.609375 C -6.539062 -12.828125 -6.34375 -13.046875 -6.125 -13.265625 C -5.914062 -13.484375 -5.691406 -13.707031 -5.453125 -13.9375 L -4.15625 -15.140625 C -3.53125 -15.722656 -3.09375 -16.148438 -2.84375 -16.421875 C -2.59375 -16.691406 -2.425781 -16.867188 -2.34375 -16.953125 L -2.234375 -17.0625 L -2.15625 -16.96875 C -1.84375 -16.644531 -1.65625 -16.332031 -1.59375 -16.03125 C -1.519531 -15.738281 -1.535156 -15.445312 -1.640625 -15.15625 C -1.734375 -14.894531 -1.878906 -14.644531 -2.078125 -14.40625 C -2.285156 -14.175781 -2.503906 -13.957031 -2.734375 -13.75 L -5.21875 -11.4375 C -5.3125 -11.332031 -5.375 -11.226562 -5.40625 -11.125 C -5.4375 -11.039062 -5.441406 -10.957031 -5.421875 -10.875 C -5.378906 -10.71875 -5.257812 -10.535156 -5.0625 -10.328125 L -3.390625 -8.5625 L 0.234375 -11.9375 C 0.648438 -11.488281 0.859375 -11.019531 0.859375 -10.53125 C 0.859375 -10.039062 0.640625 -9.59375 0.203125 -9.1875 L -2.03125 -7.109375 Z M 1.140625 -3.71875 "/></g></g></g><g fill="#a6935f" fill-opacity="1"><g transform="translate(146.602202, 129.493431)"><g><path d="M -5.578125 -10.765625 C -5.796875 -11.097656 -5.96875 -11.363281 -6.09375 -11.5625 C -6.226562 -11.769531 -6.34375 -11.9375 -6.4375 -12.0625 C -6.53125 -12.1875 -6.601562 -12.285156 -6.65625 -12.359375 C -5.28125 -13.210938 -4.175781 -12.976562 -3.34375 -11.65625 L -0.625 -7.359375 C -0.164062 -6.628906 0.25 -6.035156 0.625 -5.578125 C 1 -5.117188 1.378906 -4.796875 1.765625 -4.609375 C 2.148438 -4.429688 2.566406 -4.394531 3.015625 -4.5 C 3.472656 -4.601562 4.007812 -4.847656 4.625 -5.234375 C 4.90625 -5.410156 5.15625 -5.570312 5.375 -5.71875 C 5.601562 -5.863281 5.796875 -5.988281 5.953125 -6.09375 C 6.140625 -6.238281 6.300781 -6.363281 6.4375 -6.46875 L 6.5 -6.359375 C 6.601562 -6.179688 6.675781 -5.96875 6.71875 -5.71875 C 6.757812 -5.46875 6.738281 -5.207031 6.65625 -4.9375 C 6.582031 -4.664062 6.445312 -4.394531 6.25 -4.125 C 6.050781 -3.851562 5.765625 -3.601562 5.390625 -3.375 C 4.492188 -2.8125 3.691406 -2.4375 2.984375 -2.25 C 2.285156 -2.070312 1.625 -2.09375 1 -2.3125 C 0.375 -2.53125 -0.234375 -2.960938 -0.828125 -3.609375 C -1.421875 -4.253906 -2.050781 -5.117188 -2.71875 -6.203125 Z M -5.578125 -10.765625 "/></g></g></g><g fill="#a6935f" fill-opacity="1"><g transform="translate(158.078701, 122.742016)"><g><path d="M 8.984375 -5.59375 L 9.03125 -5.46875 C 9.1875 -5.050781 9.238281 -4.695312 9.1875 -4.40625 C 9.144531 -4.113281 9.015625 -3.851562 8.796875 -3.625 C 8.617188 -3.40625 8.378906 -3.222656 8.078125 -3.078125 C 7.785156 -2.941406 7.515625 -2.828125 7.265625 -2.734375 C 6.148438 -2.253906 5.148438 -1.941406 4.265625 -1.796875 C 3.378906 -1.660156 2.582031 -1.734375 1.875 -2.015625 C 1.164062 -2.296875 0.535156 -2.789062 -0.015625 -3.5 C -0.578125 -4.21875 -1.09375 -5.195312 -1.5625 -6.4375 L -2.890625 -9.984375 C -3.210938 -10.828125 -3.332031 -11.539062 -3.25 -12.125 C -3.207031 -12.425781 -3.117188 -12.6875 -2.984375 -12.90625 C -2.847656 -13.125 -2.679688 -13.335938 -2.484375 -13.546875 C -2.335938 -13.660156 -2.179688 -13.769531 -2.015625 -13.875 C -1.859375 -13.988281 -1.691406 -14.09375 -1.515625 -14.1875 C -1.253906 -14.3125 -0.984375 -14.4375 -0.703125 -14.5625 C -0.421875 -14.6875 -0.125 -14.804688 0.1875 -14.921875 L 1.84375 -15.546875 C 2.625 -15.835938 3.1875 -16.0625 3.53125 -16.21875 C 3.875 -16.375 4.09375 -16.476562 4.1875 -16.53125 L 4.234375 -16.546875 L 4.359375 -16.59375 L 4.40625 -16.46875 C 4.5625 -16.050781 4.609375 -15.691406 4.546875 -15.390625 C 4.484375 -15.097656 4.363281 -14.835938 4.1875 -14.609375 C 3.976562 -14.378906 3.734375 -14.195312 3.453125 -14.0625 C 3.179688 -13.9375 2.90625 -13.820312 2.625 -13.71875 L -0.5625 -12.515625 C -0.625 -12.484375 -0.679688 -12.453125 -0.734375 -12.421875 C -0.785156 -12.390625 -0.816406 -12.351562 -0.828125 -12.3125 C -0.898438 -12.25 -0.941406 -12.175781 -0.953125 -12.09375 C -0.972656 -12.019531 -0.96875 -11.925781 -0.9375 -11.8125 C -0.914062 -11.695312 -0.878906 -11.570312 -0.828125 -11.4375 L 0.078125 -9.171875 L 4.671875 -10.90625 C 4.890625 -10.34375 4.90625 -9.832031 4.71875 -9.375 C 4.539062 -8.914062 4.160156 -8.582031 3.578125 -8.375 L 0.765625 -7.3125 C 1.046875 -6.46875 1.359375 -5.789062 1.703125 -5.28125 C 2.054688 -4.78125 2.445312 -4.425781 2.875 -4.21875 C 3.300781 -4.007812 3.785156 -3.925781 4.328125 -3.96875 C 4.867188 -4.019531 5.484375 -4.175781 6.171875 -4.4375 C 6.984375 -4.738281 7.609375 -4.984375 8.046875 -5.171875 C 8.484375 -5.367188 8.742188 -5.492188 8.828125 -5.546875 L 8.875 -5.5625 Z M 8.984375 -5.59375 "/></g></g></g><g fill="#a6935f" fill-opacity="1"><g transform="translate(171.937255, 117.881577)"><g><path d="M 12.96875 -2.625 C 12.738281 -2.257812 12.460938 -1.984375 12.140625 -1.796875 C 12.003906 -1.703125 11.859375 -1.628906 11.703125 -1.578125 C 11.554688 -1.523438 11.394531 -1.503906 11.21875 -1.515625 C 11.039062 -1.523438 10.851562 -1.566406 10.65625 -1.640625 C 10.457031 -1.710938 10.25 -1.84375 10.03125 -2.03125 L 5.390625 -6.03125 L 1 -0.125 C 0.632812 -0.28125 0.359375 -0.503906 0.171875 -0.796875 C -0.00390625 -1.035156 -0.09375 -1.351562 -0.09375 -1.75 C -0.09375 -2.15625 0.0976562 -2.664062 0.484375 -3.28125 C 0.546875 -3.34375 0.65625 -3.484375 0.8125 -3.703125 C 0.976562 -3.929688 1.164062 -4.1875 1.375 -4.46875 C 1.582031 -4.75 1.804688 -5.050781 2.046875 -5.375 C 2.285156 -5.695312 2.515625 -6.003906 2.734375 -6.296875 C 2.953125 -6.585938 3.140625 -6.832031 3.296875 -7.03125 C 3.453125 -7.226562 3.554688 -7.363281 3.609375 -7.4375 L 0.25 -10.53125 C -0.0390625 -10.757812 -0.265625 -10.988281 -0.421875 -11.21875 C -0.578125 -11.457031 -0.6875 -11.679688 -0.75 -11.890625 C -0.820312 -12.097656 -0.851562 -12.296875 -0.84375 -12.484375 C -0.832031 -12.679688 -0.804688 -12.859375 -0.765625 -13.015625 C -0.628906 -13.378906 -0.382812 -13.710938 -0.03125 -14.015625 L 5.234375 -9.28125 L 9.71875 -15.296875 C 10.03125 -15.109375 10.273438 -14.867188 10.453125 -14.578125 C 10.585938 -14.328125 10.65625 -14.007812 10.65625 -13.625 C 10.65625 -13.25 10.5 -12.789062 10.1875 -12.25 C 10.113281 -12.175781 10.003906 -12.019531 9.859375 -11.78125 C 9.710938 -11.550781 9.53125 -11.289062 9.3125 -11 C 9.101562 -10.71875 8.882812 -10.410156 8.65625 -10.078125 C 8.4375 -9.742188 8.21875 -9.425781 8 -9.125 C 7.789062 -8.820312 7.597656 -8.550781 7.421875 -8.3125 C 7.253906 -8.070312 7.128906 -7.898438 7.046875 -7.796875 Z M 12.96875 -2.625 "/></g></g></g><g fill="#a6935f" fill-opacity="1"><g transform="translate(189.225749, 116.032239)"><g><path d="M 9.15625 -13.078125 C 10.039062 -12.960938 10.867188 -12.695312 11.640625 -12.28125 C 12.410156 -11.875 13.070312 -11.332031 13.625 -10.65625 C 14.1875 -9.988281 14.597656 -9.191406 14.859375 -8.265625 C 15.128906 -7.335938 15.191406 -6.289062 15.046875 -5.125 C 14.898438 -3.957031 14.582031 -2.957031 14.09375 -2.125 C 13.601562 -1.289062 13 -0.609375 12.28125 -0.078125 C 11.570312 0.441406 10.789062 0.800781 9.9375 1 C 9.09375 1.207031 8.226562 1.253906 7.34375 1.140625 C 6.476562 1.023438 5.65625 0.757812 4.875 0.34375 C 4.101562 -0.0625 3.4375 -0.601562 2.875 -1.28125 C 2.320312 -1.96875 1.910156 -2.773438 1.640625 -3.703125 C 1.378906 -4.628906 1.320312 -5.675781 1.46875 -6.84375 C 1.613281 -8.007812 1.929688 -9.007812 2.421875 -9.84375 C 2.910156 -10.675781 3.507812 -11.347656 4.21875 -11.859375 C 4.9375 -12.378906 5.722656 -12.738281 6.578125 -12.9375 C 7.429688 -13.144531 8.289062 -13.191406 9.15625 -13.078125 Z M 7.5625 -0.5625 C 8.082031 -0.5 8.601562 -0.539062 9.125 -0.6875 C 9.644531 -0.84375 10.128906 -1.117188 10.578125 -1.515625 C 11.035156 -1.910156 11.425781 -2.429688 11.75 -3.078125 C 12.082031 -3.722656 12.304688 -4.515625 12.421875 -5.453125 C 12.546875 -6.378906 12.53125 -7.195312 12.375 -7.90625 C 12.21875 -8.613281 11.96875 -9.207031 11.625 -9.6875 C 11.289062 -10.175781 10.890625 -10.554688 10.421875 -10.828125 C 9.953125 -11.109375 9.457031 -11.28125 8.9375 -11.34375 C 8.425781 -11.40625 7.90625 -11.359375 7.375 -11.203125 C 6.851562 -11.054688 6.363281 -10.789062 5.90625 -10.40625 C 5.457031 -10.03125 5.070312 -9.519531 4.75 -8.875 C 4.425781 -8.226562 4.203125 -7.441406 4.078125 -6.515625 C 3.960938 -5.578125 3.976562 -4.753906 4.125 -4.046875 C 4.28125 -3.335938 4.523438 -2.734375 4.859375 -2.234375 C 5.203125 -1.734375 5.609375 -1.34375 6.078125 -1.0625 C 6.554688 -0.789062 7.050781 -0.625 7.5625 -0.5625 Z M 7.5625 -0.5625 "/></g></g></g><g fill="#a6935f" fill-opacity="1"><g transform="translate(207.993292, 119.237543)"><g><path d="M 5.125 -10.984375 C 5.238281 -11.367188 5.335938 -11.675781 5.421875 -11.90625 C 5.515625 -12.132812 5.582031 -12.320312 5.625 -12.46875 C 5.664062 -12.613281 5.695312 -12.726562 5.71875 -12.8125 C 7.25 -12.25 7.738281 -11.234375 7.1875 -9.765625 L 5.453125 -5 C 5.160156 -4.1875 4.941406 -3.488281 4.796875 -2.90625 C 4.660156 -2.332031 4.640625 -1.832031 4.734375 -1.40625 C 4.828125 -0.988281 5.050781 -0.632812 5.40625 -0.34375 C 5.757812 -0.0625 6.273438 0.207031 6.953125 0.46875 C 7.265625 0.582031 7.550781 0.679688 7.8125 0.765625 C 8.070312 0.859375 8.289062 0.929688 8.46875 0.984375 C 8.695312 1.046875 8.890625 1.097656 9.046875 1.140625 L 9 1.265625 C 8.9375 1.460938 8.816406 1.648438 8.640625 1.828125 C 8.460938 2.015625 8.238281 2.15625 7.96875 2.25 C 7.707031 2.351562 7.410156 2.410156 7.078125 2.421875 C 6.742188 2.429688 6.375 2.363281 5.96875 2.21875 C 4.96875 1.84375 4.179688 1.429688 3.609375 0.984375 C 3.035156 0.546875 2.644531 0.0078125 2.4375 -0.625 C 2.226562 -1.257812 2.203125 -2.003906 2.359375 -2.859375 C 2.515625 -3.722656 2.8125 -4.75 3.25 -5.9375 Z M 5.125 -10.984375 "/></g></g></g><g fill="#a6935f" fill-opacity="1"><g transform="translate(220.33821, 123.971439)"><g><path d="M 13.984375 -7.6875 C 14.722656 -7.195312 15.347656 -6.597656 15.859375 -5.890625 C 16.378906 -5.179688 16.738281 -4.398438 16.9375 -3.546875 C 17.144531 -2.691406 17.160156 -1.785156 16.984375 -0.828125 C 16.816406 0.117188 16.410156 1.078125 15.765625 2.046875 C 15.117188 3.023438 14.390625 3.78125 13.578125 4.3125 C 12.773438 4.851562 11.9375 5.203125 11.0625 5.359375 C 10.1875 5.515625 9.320312 5.492188 8.46875 5.296875 C 7.625 5.097656 6.832031 4.753906 6.09375 4.265625 C 5.363281 3.785156 4.738281 3.191406 4.21875 2.484375 C 3.695312 1.773438 3.335938 0.988281 3.140625 0.125 C 2.953125 -0.738281 2.941406 -1.644531 3.109375 -2.59375 C 3.285156 -3.550781 3.695312 -4.519531 4.34375 -5.5 C 4.988281 -6.46875 5.710938 -7.21875 6.515625 -7.75 C 7.328125 -8.289062 8.164062 -8.632812 9.03125 -8.78125 C 9.894531 -8.925781 10.753906 -8.898438 11.609375 -8.703125 C 12.460938 -8.503906 13.253906 -8.164062 13.984375 -7.6875 Z M 7.03125 2.828125 C 7.46875 3.117188 7.953125 3.3125 8.484375 3.40625 C 9.023438 3.507812 9.585938 3.476562 10.171875 3.3125 C 10.753906 3.15625 11.332031 2.859375 11.90625 2.421875 C 12.488281 1.992188 13.039062 1.382812 13.5625 0.59375 C 14.070312 -0.175781 14.414062 -0.910156 14.59375 -1.609375 C 14.769531 -2.316406 14.8125 -2.960938 14.71875 -3.546875 C 14.625 -4.140625 14.425781 -4.660156 14.125 -5.109375 C 13.832031 -5.566406 13.46875 -5.941406 13.03125 -6.234375 C 12.59375 -6.515625 12.101562 -6.703125 11.5625 -6.796875 C 11.03125 -6.898438 10.476562 -6.878906 9.90625 -6.734375 C 9.332031 -6.585938 8.753906 -6.296875 8.171875 -5.859375 C 7.597656 -5.421875 7.054688 -4.816406 6.546875 -4.046875 C 6.023438 -3.253906 5.675781 -2.507812 5.5 -1.8125 C 5.320312 -1.113281 5.273438 -0.460938 5.359375 0.140625 C 5.441406 0.742188 5.628906 1.269531 5.921875 1.71875 C 6.222656 2.175781 6.59375 2.546875 7.03125 2.828125 Z M 7.03125 2.828125 "/></g></g></g><g fill="#a6935f" fill-opacity="1"><g transform="translate(235.787781, 134.944191)"><g><path d="M 10.171875 2.296875 C 9.765625 1.835938 9.582031 1.363281 9.625 0.875 C 9.675781 0.382812 9.921875 -0.0546875 10.359375 -0.453125 L 12.203125 1.609375 C 12.597656 2.054688 12.867188 2.5 13.015625 2.9375 C 13.148438 3.332031 13.175781 3.722656 13.09375 4.109375 C 13 4.503906 12.820312 4.875 12.5625 5.21875 C 12.300781 5.570312 11.988281 5.910156 11.625 6.234375 L 11 6.796875 C 10.570312 7.179688 10.113281 7.453125 9.625 7.609375 C 9.132812 7.765625 8.617188 7.800781 8.078125 7.71875 C 7.546875 7.632812 7.003906 7.425781 6.453125 7.09375 C 5.898438 6.757812 5.351562 6.285156 4.8125 5.671875 C 4.226562 5.023438 3.773438 4.289062 3.453125 3.46875 C 3.128906 2.644531 2.976562 1.796875 3 0.921875 C 3.019531 0.0546875 3.234375 -0.816406 3.640625 -1.703125 C 4.054688 -2.585938 4.695312 -3.421875 5.5625 -4.203125 C 6.445312 -4.984375 7.347656 -5.53125 8.265625 -5.84375 C 9.191406 -6.15625 10.085938 -6.273438 10.953125 -6.203125 C 11.828125 -6.128906 12.648438 -5.882812 13.421875 -5.46875 C 14.203125 -5.050781 14.882812 -4.519531 15.46875 -3.875 C 15.84375 -3.445312 16.125 -3.03125 16.3125 -2.625 C 16.507812 -2.226562 16.644531 -1.859375 16.71875 -1.515625 C 16.800781 -1.171875 16.835938 -0.863281 16.828125 -0.59375 C 16.816406 -0.332031 16.800781 -0.140625 16.78125 -0.015625 C 16.675781 -0.00390625 16.582031 0 16.5 0 C 16.414062 0 16.332031 0.00390625 16.25 0.015625 C 16.175781 0.0234375 16.109375 0.015625 16.046875 -0.015625 C 15.878906 -0.0546875 15.726562 -0.148438 15.59375 -0.296875 C 15.46875 -0.441406 15.375 -0.59375 15.3125 -0.75 C 15.25 -0.914062 15.179688 -1.09375 15.109375 -1.28125 C 15.035156 -1.46875 14.929688 -1.679688 14.796875 -1.921875 C 14.660156 -2.160156 14.457031 -2.429688 14.1875 -2.734375 C 13.832031 -3.117188 13.40625 -3.421875 12.90625 -3.640625 C 12.414062 -3.867188 11.875 -3.988281 11.28125 -4 C 10.695312 -4.007812 10.066406 -3.875 9.390625 -3.59375 C 8.710938 -3.3125 8.023438 -2.859375 7.328125 -2.234375 C 6.628906 -1.609375 6.109375 -0.976562 5.765625 -0.34375 C 5.421875 0.28125 5.210938 0.894531 5.140625 1.5 C 5.078125 2.101562 5.128906 2.660156 5.296875 3.171875 C 5.472656 3.679688 5.738281 4.128906 6.09375 4.515625 C 6.457031 4.929688 6.800781 5.222656 7.125 5.390625 C 7.445312 5.554688 7.753906 5.632812 8.046875 5.625 C 8.335938 5.613281 8.628906 5.523438 8.921875 5.359375 C 9.210938 5.191406 9.503906 4.972656 9.796875 4.703125 L 10.53125 4.046875 C 10.675781 3.921875 10.789062 3.789062 10.875 3.65625 C 10.9375 3.53125 10.953125 3.40625 10.921875 3.28125 C 10.910156 3.21875 10.863281 3.113281 10.78125 2.96875 L 10.453125 2.609375 Z M 10.171875 2.296875 "/></g></g></g><g fill="#a6935f" fill-opacity="1"><g transform="translate(246.81292, 148.453076)"><g><path d="M 2.171875 -0.15625 L 10.515625 -5.203125 C 11.191406 -5.617188 11.785156 -5.726562 12.296875 -5.53125 C 12.816406 -5.34375 13.289062 -4.898438 13.71875 -4.203125 C 13.632812 -4.160156 13.53125 -4.101562 13.40625 -4.03125 C 13.25 -3.96875 13.066406 -3.875 12.859375 -3.75 C 12.648438 -3.632812 12.375 -3.472656 12.03125 -3.265625 L 3.671875 1.75 C 2.992188 2.15625 2.394531 2.265625 1.875 2.078125 C 1.351562 1.898438 0.882812 1.46875 0.46875 0.78125 C 0.550781 0.738281 0.660156 0.679688 0.796875 0.609375 C 0.929688 0.546875 1.109375 0.445312 1.328125 0.3125 C 1.546875 0.175781 1.828125 0.0195312 2.171875 -0.15625 Z M 2.171875 -0.15625 "/></g></g></g><g fill="#a6935f" fill-opacity="1"><g transform="translate(251.304537, 156.113389)"><g><path d="M 5.765625 8.890625 L 5.625 8.9375 C 5.207031 9.101562 4.851562 9.160156 4.5625 9.109375 C 4.257812 9.078125 3.992188 8.957031 3.765625 8.75 C 3.546875 8.5625 3.363281 8.320312 3.21875 8.03125 C 3.070312 7.738281 2.945312 7.46875 2.84375 7.21875 C 2.34375 6.113281 2.015625 5.117188 1.859375 4.234375 C 1.710938 3.347656 1.769531 2.550781 2.03125 1.84375 C 2.300781 1.132812 2.789062 0.492188 3.5 -0.078125 C 4.207031 -0.660156 5.179688 -1.191406 6.421875 -1.671875 L 9.9375 -3.0625 C 10.78125 -3.394531 11.492188 -3.519531 12.078125 -3.4375 C 12.378906 -3.40625 12.640625 -3.320312 12.859375 -3.1875 C 13.078125 -3.0625 13.289062 -2.898438 13.5 -2.703125 C 13.613281 -2.554688 13.726562 -2.40625 13.84375 -2.25 C 13.957031 -2.101562 14.0625 -1.929688 14.15625 -1.734375 C 14.289062 -1.484375 14.421875 -1.21875 14.546875 -0.9375 C 14.679688 -0.65625 14.804688 -0.359375 14.921875 -0.046875 L 15.578125 1.59375 C 15.878906 2.375 16.113281 2.929688 16.28125 3.265625 C 16.445312 3.609375 16.554688 3.828125 16.609375 3.921875 L 16.625 3.953125 L 16.671875 4.078125 L 16.546875 4.125 C 16.128906 4.289062 15.769531 4.34375 15.46875 4.28125 C 15.175781 4.238281 14.910156 4.128906 14.671875 3.953125 C 14.441406 3.734375 14.257812 3.488281 14.125 3.21875 C 14 2.945312 13.878906 2.675781 13.765625 2.40625 L 12.515625 -0.765625 C 12.472656 -0.835938 12.429688 -0.894531 12.390625 -0.9375 C 12.359375 -0.976562 12.320312 -1.007812 12.28125 -1.03125 C 12.21875 -1.09375 12.148438 -1.132812 12.078125 -1.15625 C 11.992188 -1.175781 11.894531 -1.171875 11.78125 -1.140625 C 11.675781 -1.109375 11.554688 -1.066406 11.421875 -1.015625 L 9.171875 -0.078125 L 10.984375 4.5 C 10.421875 4.71875 9.910156 4.738281 9.453125 4.5625 C 8.992188 4.394531 8.65625 4.023438 8.4375 3.453125 L 7.328125 0.640625 C 6.484375 0.941406 5.8125 1.269531 5.3125 1.625 C 4.820312 1.988281 4.472656 2.378906 4.265625 2.796875 C 4.054688 3.222656 3.976562 3.707031 4.03125 4.25 C 4.09375 4.789062 4.257812 5.40625 4.53125 6.09375 C 4.851562 6.894531 5.113281 7.515625 5.3125 7.953125 C 5.507812 8.390625 5.632812 8.648438 5.6875 8.734375 L 5.703125 8.78125 Z M 5.765625 8.890625 "/></g></g></g><g clip-path="url(#42665ed2e7)"><path fill="#a6935f" d="M 242.3125 203.183594 C 240.832031 208.226562 238.570312 213.011719 235.761719 217.417969 C 233.445312 221.003906 230.808594 224.375 227.847656 227.441406 C 227.464844 227.863281 227.039062 228.238281 226.632812 228.632812 C 226.21875 229.019531 225.816406 229.421875 225.394531 229.800781 L 224.109375 230.917969 L 223.46875 231.476562 L 222.804688 232.003906 L 221.472656 233.066406 C 221.023438 233.410156 220.558594 233.734375 220.101562 234.074219 C 219.203125 234.761719 218.242188 235.371094 217.304688 236.007812 C 217.167969 236.101562 217.027344 236.195312 216.878906 236.292969 C 216.722656 236.386719 216.566406 236.480469 216.398438 236.582031 C 216.066406 236.78125 215.710938 236.992188 215.332031 237.21875 C 214.582031 237.691406 213.695312 238.136719 212.734375 238.644531 C 212.496094 238.769531 212.253906 238.90625 211.996094 239.027344 C 211.742188 239.144531 211.480469 239.265625 211.214844 239.390625 C 210.679688 239.636719 210.128906 239.890625 209.558594 240.15625 C 208.390625 240.609375 207.175781 241.160156 205.847656 241.585938 C 200.605469 243.484375 194.0625 244.660156 187.5 244.6875 C 180.933594 244.660156 174.390625 243.484375 169.148438 241.585938 C 167.820312 241.160156 166.605469 240.609375 165.4375 240.15625 C 164.867188 239.890625 164.316406 239.636719 163.785156 239.390625 C 163.515625 239.265625 163.253906 239.144531 163 239.027344 C 162.746094 238.90625 162.503906 238.769531 162.261719 238.644531 C 161.304688 238.136719 160.414062 237.691406 159.667969 237.21875 C 159.285156 236.992188 158.929688 236.78125 158.597656 236.582031 C 158.433594 236.484375 158.273438 236.386719 158.121094 236.292969 C 157.972656 236.195312 157.828125 236.101562 157.695312 236.007812 C 154.128906 233.671875 150.777344 231.015625 147.730469 228.035156 C 144.519531 224.824219 141.710938 221.230469 139.234375 217.417969 C 136.425781 213.011719 134.164062 208.226562 132.683594 203.183594 C 131.140625 198.15625 130.429688 192.878906 130.382812 187.605469 C 130.429688 182.328125 131.140625 177.050781 132.683594 172.023438 C 134.164062 166.980469 136.425781 162.195312 139.234375 157.789062 C 141.550781 154.203125 144.1875 150.832031 147.148438 147.765625 C 147.53125 147.34375 147.957031 146.972656 148.363281 146.574219 C 148.777344 146.1875 149.179688 145.785156 149.601562 145.40625 L 150.886719 144.289062 L 151.527344 143.730469 L 152.195312 143.203125 L 153.523438 142.140625 C 153.972656 141.796875 154.4375 141.472656 154.894531 141.132812 C 155.796875 140.445312 156.753906 139.835938 157.695312 139.199219 C 157.828125 139.109375 157.972656 139.011719 158.121094 138.914062 C 158.273438 138.820312 158.433594 138.726562 158.597656 138.625 C 158.929688 138.425781 159.285156 138.214844 159.664062 137.988281 C 160.414062 137.515625 161.304688 137.070312 162.261719 136.5625 C 162.503906 136.4375 162.746094 136.300781 163 136.179688 C 163.253906 136.0625 163.515625 135.941406 163.78125 135.816406 C 164.316406 135.570312 164.867188 135.316406 165.4375 135.050781 C 166.605469 134.597656 167.820312 134.046875 169.148438 133.621094 C 174.390625 131.722656 180.933594 130.546875 187.5 130.519531 C 194.0625 130.546875 200.605469 131.722656 205.847656 133.621094 C 207.175781 134.046875 208.390625 134.597656 209.558594 135.050781 C 210.128906 135.316406 210.679688 135.570312 211.214844 135.816406 C 211.480469 135.941406 211.742188 136.0625 211.996094 136.179688 C 212.253906 136.300781 212.492188 136.4375 212.734375 136.5625 C 213.691406 137.070312 214.582031 137.515625 215.332031 137.988281 C 215.710938 138.214844 216.066406 138.425781 216.398438 138.625 C 216.5625 138.722656 216.722656 138.820312 216.875 138.914062 C 217.023438 139.011719 217.167969 139.109375 217.300781 139.199219 C 220.867188 141.535156 224.21875 144.191406 227.265625 147.171875 C 230.476562 150.382812 233.285156 153.976562 235.761719 157.789062 C 238.570312 162.195312 240.832031 166.980469 242.3125 172.023438 C 243.855469 177.050781 244.570312 182.328125 244.613281 187.605469 C 244.570312 192.878906 243.855469 198.15625 242.3125 203.183594 Z M 245.925781 187.566406 L 245.925781 187.558594 C 245.878906 182.171875 245.15625 176.78125 243.585938 171.640625 C 242.074219 166.484375 239.761719 161.589844 236.878906 157.097656 L 235.496094 155.015625 C 235.496094 155.015625 235.09375 154.453125 234.496094 153.613281 C 233.914062 152.757812 233.03125 151.699219 232.183594 150.613281 C 231.273438 149.582031 230.402344 148.515625 229.667969 147.789062 C 228.953125 147.046875 228.476562 146.550781 228.476562 146.550781 C 228.476562 146.550781 228.355469 146.425781 228.140625 146.21875 C 227.921875 146.007812 227.613281 145.710938 227.242188 145.351562 C 226.519531 144.613281 225.46875 143.726562 224.4375 142.816406 C 223.910156 142.375 223.367188 141.953125 222.863281 141.550781 C 222.609375 141.347656 222.367188 141.15625 222.136719 140.972656 C 221.894531 140.796875 221.667969 140.636719 221.460938 140.484375 C 220.621094 139.878906 220.066406 139.476562 220.066406 139.476562 C 220.066406 139.476562 219.945312 139.378906 219.746094 139.25 C 219.550781 139.121094 219.292969 138.949219 219.035156 138.773438 C 218.515625 138.425781 217.996094 138.078125 217.996094 138.078125 C 217.855469 137.984375 217.710938 137.886719 217.558594 137.785156 C 217.402344 137.691406 217.242188 137.59375 217.070312 137.488281 C 216.734375 137.285156 216.367188 137.066406 215.980469 136.835938 C 215.214844 136.351562 214.304688 135.894531 213.328125 135.371094 C 213.078125 135.246094 212.832031 135.105469 212.570312 134.980469 C 212.308594 134.859375 212.042969 134.734375 211.769531 134.605469 C 211.226562 134.355469 210.660156 134.09375 210.078125 133.824219 C 208.882812 133.351562 207.636719 132.792969 206.277344 132.355469 C 200.914062 130.40625 194.214844 129.199219 187.5 129.175781 C 180.78125 129.199219 174.082031 130.40625 168.71875 132.355469 C 167.359375 132.792969 166.113281 133.355469 164.917969 133.824219 C 164.335938 134.09375 163.773438 134.355469 163.226562 134.605469 C 162.953125 134.734375 162.6875 134.859375 162.425781 134.980469 C 162.164062 135.105469 161.917969 135.246094 161.671875 135.371094 C 160.691406 135.894531 159.78125 136.351562 159.015625 136.835938 C 158.628906 137.066406 158.265625 137.285156 157.925781 137.488281 C 157.753906 137.59375 157.59375 137.691406 157.4375 137.785156 C 157.285156 137.886719 157.140625 137.984375 157 138.078125 C 157 138.078125 156.484375 138.425781 155.964844 138.773438 C 155.703125 138.949219 155.445312 139.121094 155.25 139.25 C 155.054688 139.378906 154.933594 139.476562 154.933594 139.476562 C 154.933594 139.476562 154.375 139.878906 153.539062 140.484375 C 153.328125 140.636719 153.101562 140.796875 152.863281 140.972656 C 152.628906 141.15625 152.386719 141.347656 152.132812 141.550781 C 151.632812 141.953125 151.085938 142.375 150.558594 142.816406 C 149.527344 143.726562 148.476562 144.613281 147.753906 145.351562 C 147.382812 145.710938 147.074219 146.007812 146.855469 146.21875 C 146.640625 146.425781 146.519531 146.550781 146.519531 146.550781 C 146.519531 146.550781 146.042969 147.046875 145.332031 147.789062 C 144.59375 148.515625 143.722656 149.582031 142.8125 150.613281 C 141.964844 151.699219 141.082031 152.757812 140.503906 153.613281 C 139.902344 154.453125 139.5 155.015625 139.5 155.015625 L 138.117188 157.097656 C 135.234375 161.589844 132.921875 166.484375 131.414062 171.640625 C 129.84375 176.78125 129.117188 182.171875 129.070312 187.5625 L 129.070312 187.648438 C 129.117188 193.035156 129.84375 198.425781 131.414062 203.566406 C 132.921875 208.722656 135.234375 213.617188 138.117188 218.109375 L 139.5 220.191406 C 139.5 220.191406 139.902344 220.753906 140.503906 221.59375 C 141.082031 222.449219 141.964844 223.507812 142.8125 224.59375 C 143.722656 225.625 144.59375 226.691406 145.332031 227.417969 C 146.042969 228.160156 146.519531 228.65625 146.519531 228.65625 C 146.519531 228.65625 146.640625 228.78125 146.855469 228.988281 C 147.074219 229.199219 147.382812 229.496094 147.753906 229.855469 C 148.476562 230.59375 149.527344 231.480469 150.558594 232.390625 C 151.085938 232.832031 151.632812 233.253906 152.132812 233.65625 C 152.386719 233.859375 152.628906 234.050781 152.863281 234.234375 C 153.101562 234.410156 153.328125 234.574219 153.539062 234.722656 C 154.375 235.328125 154.933594 235.730469 154.933594 235.730469 C 154.933594 235.730469 155.054688 235.828125 155.25 235.957031 C 155.445312 236.085938 155.703125 236.257812 155.964844 236.433594 C 156.484375 236.78125 157 237.128906 157 237.128906 C 157.140625 237.222656 157.285156 237.320312 157.4375 237.421875 C 157.59375 237.515625 157.753906 237.613281 157.925781 237.71875 C 158.265625 237.921875 158.628906 238.140625 159.015625 238.371094 C 159.78125 238.855469 160.691406 239.3125 161.671875 239.835938 C 161.917969 239.960938 162.164062 240.101562 162.425781 240.226562 C 162.6875 240.347656 162.953125 240.472656 163.226562 240.601562 C 163.773438 240.851562 164.335938 241.113281 164.917969 241.382812 C 166.113281 241.855469 167.359375 242.414062 168.71875 242.851562 C 174.082031 244.800781 180.78125 246.007812 187.5 246.035156 C 194.214844 246.007812 200.914062 244.800781 206.277344 242.851562 C 207.636719 242.414062 208.882812 241.851562 210.078125 241.382812 C 210.660156 241.113281 211.226562 240.851562 211.769531 240.601562 C 212.042969 240.472656 212.308594 240.347656 212.574219 240.226562 C 212.832031 240.101562 213.082031 239.960938 213.328125 239.835938 C 214.308594 239.3125 215.214844 238.855469 215.980469 238.371094 C 216.371094 238.140625 216.734375 237.921875 217.074219 237.71875 C 217.242188 237.613281 217.40625 237.515625 217.558594 237.421875 C 217.710938 237.320312 217.855469 237.222656 217.996094 237.128906 C 217.996094 237.128906 218.515625 236.78125 219.035156 236.433594 C 219.292969 236.257812 219.550781 236.085938 219.746094 235.957031 C 219.945312 235.828125 220.066406 235.730469 220.066406 235.730469 C 220.066406 235.730469 220.621094 235.328125 221.460938 234.722656 C 221.667969 234.574219 221.894531 234.410156 222.136719 234.234375 C 222.367188 234.050781 222.609375 233.859375 222.863281 233.65625 C 223.367188 233.253906 223.910156 232.832031 224.4375 232.390625 C 225.46875 231.480469 226.519531 230.59375 227.242188 229.855469 C 227.613281 229.496094 227.921875 229.199219 228.140625 228.988281 C 228.355469 228.78125 228.476562 228.65625 228.476562 228.65625 C 228.476562 228.65625 228.953125 228.160156 229.667969 227.417969 C 230.402344 226.691406 231.273438 225.625 232.183594 224.59375 C 233.03125 223.507812 233.917969 222.449219 234.496094 221.59375 C 235.09375 220.753906 235.496094 220.191406 235.496094 220.191406 L 236.878906 218.109375 C 239.761719 213.617188 242.074219 208.722656 243.585938 203.566406 C 245.15625 198.425781 245.878906 193.035156 245.925781 187.648438 L 245.925781 187.640625 L 245.929688 187.605469 L 245.925781 187.566406 " fill-opacity="1" fill-rule="nonzero"/></g><g clip-path="url(#7c95114991)"><path fill="#a6935f" d="M 242.3125 203.183594 C 240.832031 208.226562 238.570312 213.011719 235.761719 217.417969 C 233.445312 221.003906 230.808594 224.375 227.847656 227.441406 C 227.464844 227.863281 227.039062 228.238281 226.632812 228.632812 C 226.21875 229.019531 225.816406 229.421875 225.394531 229.800781 L 224.109375 230.917969 L 223.46875 231.476562 L 222.804688 232.003906 L 221.472656 233.066406 C 221.023438 233.410156 220.558594 233.734375 220.101562 234.074219 C 219.203125 234.761719 218.242188 235.371094 217.304688 236.007812 C 217.167969 236.101562 217.027344 236.195312 216.878906 236.292969 C 216.722656 236.386719 216.566406 236.480469 216.398438 236.582031 C 216.066406 236.78125 215.710938 236.992188 215.332031 237.21875 C 214.582031 237.691406 213.695312 238.136719 212.734375 238.644531 C 212.496094 238.769531 212.253906 238.90625 211.996094 239.027344 C 211.742188 239.144531 211.480469 239.265625 211.214844 239.390625 C 210.679688 239.636719 210.128906 239.890625 209.558594 240.15625 C 208.390625 240.609375 207.175781 241.160156 205.847656 241.585938 C 200.605469 243.484375 194.0625 244.660156 187.5 244.6875 C 180.933594 244.660156 174.390625 243.484375 169.148438 241.585938 C 167.820312 241.160156 166.605469 240.609375 165.4375 240.15625 C 164.867188 239.890625 164.316406 239.636719 163.785156 239.390625 C 163.515625 239.265625 163.253906 239.144531 163 239.027344 C 162.746094 238.90625 162.503906 238.769531 162.261719 238.644531 C 161.304688 238.136719 160.414062 237.691406 159.667969 237.21875 C 159.285156 236.992188 158.929688 236.78125 158.597656 236.582031 C 158.433594 236.484375 158.273438 236.386719 158.121094 236.292969 C 157.972656 236.195312 157.828125 236.101562 157.695312 236.007812 C 154.128906 233.671875 150.777344 231.015625 147.730469 228.035156 C 144.519531 224.824219 141.710938 221.230469 139.234375 217.417969 C 136.425781 213.011719 134.164062 208.226562 132.683594 203.183594 C 131.140625 198.15625 130.429688 192.878906 130.382812 187.605469 C 130.429688 182.328125 131.140625 177.050781 132.683594 172.023438 C 134.164062 166.980469 136.425781 162.195312 139.234375 157.789062 C 141.550781 154.203125 144.1875 150.832031 147.148438 147.765625 C 147.53125 147.34375 147.957031 146.972656 148.363281 146.574219 C 148.777344 146.1875 149.179688 145.785156 149.601562 145.40625 L 150.886719 144.289062 L 151.527344 143.730469 L 152.195312 143.203125 L 153.523438 142.140625 C 153.972656 141.796875 154.4375 141.472656 154.894531 141.132812 C 155.796875 140.445312 156.753906 139.835938 157.695312 139.199219 C 157.828125 139.109375 157.972656 139.011719 158.121094 138.914062 C 158.273438 138.820312 158.433594 138.726562 158.597656 138.625 C 158.929688 138.425781 159.285156 138.214844 159.664062 137.988281 C 160.414062 137.515625 161.304688 137.070312 162.261719 136.5625 C 162.503906 136.4375 162.746094 136.300781 163 136.179688 C 163.253906 136.0625 163.515625 135.941406 163.78125 135.816406 C 164.316406 135.570312 164.867188 135.316406 165.4375 135.050781 C 166.605469 134.597656 167.820312 134.046875 169.148438 133.621094 C 174.390625 131.722656 180.933594 130.546875 187.5 130.519531 C 194.0625 130.546875 200.605469 131.722656 205.847656 133.621094 C 207.175781 134.046875 208.390625 134.597656 209.558594 135.050781 C 210.128906 135.316406 210.679688 135.570312 211.214844 135.816406 C 211.480469 135.941406 211.742188 136.0625 211.996094 136.179688 C 212.253906 136.300781 212.492188 136.4375 212.734375 136.5625 C 213.691406 137.070312 214.582031 137.515625 215.332031 137.988281 C 215.710938 138.214844 216.066406 138.425781 216.398438 138.625 C 216.5625 138.722656 216.722656 138.820312 216.875 138.914062 C 217.023438 139.011719 217.167969 139.109375 217.300781 139.199219 C 220.867188 141.535156 224.21875 144.191406 227.265625 147.171875 C 230.476562 150.382812 233.285156 153.976562 235.761719 157.789062 C 238.570312 162.195312 240.832031 166.980469 242.3125 172.023438 C 243.855469 177.050781 244.570312 182.328125 244.613281 187.605469 C 244.570312 192.878906 243.855469 198.15625 242.3125 203.183594 Z M 245.925781 187.566406 L 245.925781 187.558594 C 245.878906 182.171875 245.15625 176.78125 243.585938 171.640625 C 242.074219 166.484375 239.761719 161.589844 236.878906 157.097656 L 235.496094 155.015625 C 235.496094 155.015625 235.09375 154.453125 234.496094 153.613281 C 233.914062 152.757812 233.03125 151.699219 232.183594 150.613281 C 231.273438 149.582031 230.402344 148.515625 229.667969 147.789062 C 228.953125 147.046875 228.476562 146.550781 228.476562 146.550781 C 228.476562 146.550781 228.355469 146.425781 228.140625 146.21875 C 227.921875 146.007812 227.613281 145.710938 227.242188 145.351562 C 226.519531 144.613281 225.46875 143.726562 224.4375 142.816406 C 223.910156 142.375 223.367188 141.953125 222.863281 141.550781 C 222.609375 141.347656 222.367188 141.15625 222.136719 140.972656 C 221.894531 140.796875 221.667969 140.636719 221.460938 140.484375 C 220.621094 139.878906 220.066406 139.476562 220.066406 139.476562 C 220.066406 139.476562 219.945312 139.378906 219.746094 139.25 C 219.550781 139.121094 219.292969 138.949219 219.035156 138.773438 C 218.515625 138.425781 217.996094 138.078125 217.996094 138.078125 C 217.855469 137.984375 217.710938 137.886719 217.558594 137.785156 C 217.402344 137.691406 217.242188 137.59375 217.070312 137.488281 C 216.734375 137.285156 216.367188 137.066406 215.980469 136.835938 C 215.214844 136.351562 214.304688 135.894531 213.328125 135.371094 C 213.078125 135.246094 212.832031 135.105469 212.570312 134.980469 C 212.308594 134.859375 212.042969 134.734375 211.769531 134.605469 C 211.226562 134.355469 210.660156 134.09375 210.078125 133.824219 C 208.882812 133.351562 207.636719 132.792969 206.277344 132.355469 C 200.914062 130.40625 194.214844 129.199219 187.5 129.175781 C 180.78125 129.199219 174.082031 130.40625 168.71875 132.355469 C 167.359375 132.792969 166.113281 133.355469 164.917969 133.824219 C 164.335938 134.09375 163.773438 134.355469 163.226562 134.605469 C 162.953125 134.734375 162.6875 134.859375 162.425781 134.980469 C 162.164062 135.105469 161.917969 135.246094 161.671875 135.371094 C 160.691406 135.894531 159.78125 136.351562 159.015625 136.835938 C 158.628906 137.066406 158.265625 137.285156 157.925781 137.488281 C 157.753906 137.59375 157.59375 137.691406 157.4375 137.785156 C 157.285156 137.886719 157.140625 137.984375 157 138.078125 C 157 138.078125 156.484375 138.425781 155.964844 138.773438 C 155.703125 138.949219 155.445312 139.121094 155.25 139.25 C 155.054688 139.378906 154.933594 139.476562 154.933594 139.476562 C 154.933594 139.476562 154.375 139.878906 153.539062 140.484375 C 153.328125 140.636719 153.101562 140.796875 152.863281 140.972656 C 152.628906 141.15625 152.386719 141.347656 152.132812 141.550781 C 151.632812 141.953125 151.085938 142.375 150.558594 142.816406 C 149.527344 143.726562 148.476562 144.613281 147.753906 145.351562 C 147.382812 145.710938 147.074219 146.007812 146.855469 146.21875 C 146.640625 146.425781 146.519531 146.550781 146.519531 146.550781 C 146.519531 146.550781 146.042969 147.046875 145.332031 147.789062 C 144.59375 148.515625 143.722656 149.582031 142.8125 150.613281 C 141.964844 151.699219 141.082031 152.757812 140.503906 153.613281 C 139.902344 154.453125 139.5 155.015625 139.5 155.015625 L 138.117188 157.097656 C 135.234375 161.589844 132.921875 166.484375 131.414062 171.640625 C 129.84375 176.78125 129.117188 182.171875 129.070312 187.5625 L 129.070312 187.648438 C 129.117188 193.035156 129.84375 198.425781 131.414062 203.566406 C 132.921875 208.722656 135.234375 213.617188 138.117188 218.109375 L 139.5 220.191406 C 139.5 220.191406 139.902344 220.753906 140.503906 221.59375 C 141.082031 222.449219 141.964844 223.507812 142.8125 224.59375 C 143.722656 225.625 144.59375 226.691406 145.332031 227.417969 C 146.042969 228.160156 146.519531 228.65625 146.519531 228.65625 C 146.519531 228.65625 146.640625 228.78125 146.855469 228.988281 C 147.074219 229.199219 147.382812 229.496094 147.753906 229.855469 C 148.476562 230.59375 149.527344 231.480469 150.558594 232.390625 C 151.085938 232.832031 151.632812 233.253906 152.132812 233.65625 C 152.386719 233.859375 152.628906 234.050781 152.863281 234.234375 C 153.101562 234.410156 153.328125 234.574219 153.539062 234.722656 C 154.375 235.328125 154.933594 235.730469 154.933594 235.730469 C 154.933594 235.730469 155.054688 235.828125 155.25 235.957031 C 155.445312 236.085938 155.703125 236.257812 155.964844 236.433594 C 156.484375 236.78125 157 237.128906 157 237.128906 C 157.140625 237.222656 157.285156 237.320312 157.4375 237.421875 C 157.59375 237.515625 157.753906 237.613281 157.925781 237.71875 C 158.265625 237.921875 158.628906 238.140625 159.015625 238.371094 C 159.78125 238.855469 160.691406 239.3125 161.671875 239.835938 C 161.917969 239.960938 162.164062 240.101562 162.425781 240.226562 C 162.6875 240.347656 162.953125 240.472656 163.226562 240.601562 C 163.773438 240.851562 164.335938 241.113281 164.917969 241.382812 C 166.113281 241.855469 167.359375 242.414062 168.71875 242.851562 C 174.082031 244.800781 180.78125 246.007812 187.5 246.035156 C 194.214844 246.007812 200.914062 244.800781 206.277344 242.851562 C 207.636719 242.414062 208.882812 241.851562 210.078125 241.382812 C 210.660156 241.113281 211.226562 240.851562 211.769531 240.601562 C 212.042969 240.472656 212.308594 240.347656 212.574219 240.226562 C 212.832031 240.101562 213.082031 239.960938 213.328125 239.835938 C 214.308594 239.3125 215.214844 238.855469 215.980469 238.371094 C 216.371094 238.140625 216.734375 237.921875 217.074219 237.71875 C 217.242188 237.613281 217.40625 237.515625 217.558594 237.421875 C 217.710938 237.320312 217.855469 237.222656 217.996094 237.128906 C 217.996094 237.128906 218.515625 236.78125 219.035156 236.433594 C 219.292969 236.257812 219.550781 236.085938 219.746094 235.957031 C 219.945312 235.828125 220.066406 235.730469 220.066406 235.730469 C 220.066406 235.730469 220.621094 235.328125 221.460938 234.722656 C 221.667969 234.574219 221.894531 234.410156 222.136719 234.234375 C 222.367188 234.050781 222.609375 233.859375 222.863281 233.65625 C 223.367188 233.253906 223.910156 232.832031 224.4375 232.390625 C 225.46875 231.480469 226.519531 230.59375 227.242188 229.855469 C 227.613281 229.496094 227.921875 229.199219 228.140625 228.988281 C 228.355469 228.78125 228.476562 228.65625 228.476562 228.65625 C 228.476562 228.65625 228.953125 228.160156 229.667969 227.417969 C 230.402344 226.691406 231.273438 225.625 232.183594 224.59375 C 233.03125 223.507812 233.917969 222.449219 234.496094 221.59375 C 235.09375 220.753906 235.496094 220.191406 235.496094 220.191406 L 236.878906 218.109375 C 239.761719 213.617188 242.074219 208.722656 243.585938 203.566406 C 245.15625 198.425781 245.878906 193.035156 245.925781 187.648438 L 245.925781 187.640625 L 245.929688 187.605469 L 245.925781 187.566406 " fill-opacity="1" fill-rule="nonzero"/></g><g clip-path="url(#c2549dba35)"><path fill="#a6935f" d="M 174.628906 200.402344 C 174.992188 200.613281 175.480469 200.753906 176.089844 200.835938 C 176.691406 200.914062 177.324219 200.953125 177.984375 200.953125 C 178.644531 200.953125 179.296875 200.964844 179.957031 200.992188 C 180.617188 201.015625 181.15625 201.054688 181.578125 201.105469 C 182.210938 201.214844 182.617188 201.457031 182.800781 201.855469 C 182.988281 202.253906 183 202.714844 182.839844 203.238281 C 182.578125 204.136719 182.027344 205.371094 181.179688 206.949219 C 180.335938 208.53125 179.472656 210.203125 178.574219 211.964844 C 177.675781 213.726562 176.863281 215.449219 176.125 217.132812 C 175.390625 218.820312 175.019531 220.214844 175.019531 221.316406 C 175.019531 222.476562 175.359375 223.089844 176.042969 223.175781 C 176.730469 223.25 177.515625 222.925781 178.414062 222.1875 C 179.3125 221.503906 180.296875 220.566406 181.375 219.382812 C 182.449219 218.199219 183.558594 216.882812 184.691406 215.4375 C 185.824219 213.988281 186.925781 212.515625 188.011719 211.015625 C 189.085938 209.515625 190.074219 208.121094 190.96875 206.832031 C 191.867188 205.546875 192.601562 204.449219 193.179688 203.554688 C 193.757812 202.65625 194.128906 202.082031 194.289062 201.816406 C 194.449219 201.554688 194.640625 201.476562 194.878906 201.582031 C 195.113281 201.6875 195.152344 201.867188 194.992188 202.132812 C 194.621094 202.714844 193.871094 203.855469 192.742188 205.566406 C 191.609375 207.277344 190.296875 209.183594 188.796875 211.292969 C 187.300781 213.398438 185.691406 215.511719 183.980469 217.648438 C 182.269531 219.78125 180.625 221.527344 179.046875 222.898438 C 177.3125 224.425781 175.742188 225.085938 174.351562 224.871094 C 172.957031 224.660156 172.179688 223.609375 172.019531 221.714844 C 171.917969 220.34375 172.109375 218.792969 172.609375 217.058594 C 173.109375 215.320312 173.699219 213.585938 174.382812 211.84375 C 175.070312 210.105469 175.734375 208.484375 176.394531 206.988281 C 177.054688 205.488281 177.484375 204.289062 177.695312 203.394531 C 176.800781 203.34375 175.984375 203.195312 175.25 202.957031 C 174.511719 202.722656 173.851562 202.394531 173.277344 201.972656 C 171.429688 203.707031 169.605469 205.226562 167.785156 206.511719 C 165.96875 207.800781 164.167969 208.84375 162.378906 209.632812 C 159.433594 211.054688 156.472656 211.976562 153.496094 212.394531 C 150.523438 212.816406 147.542969 212.917969 144.570312 212.707031 C 141.597656 212.496094 138.621094 212.035156 135.648438 211.324219 C 132.675781 210.613281 129.683594 209.8125 126.6875 208.914062 C 123.578125 208.019531 120.566406 207.21875 117.648438 206.507812 C 114.726562 205.796875 111.917969 205.496094 109.234375 205.597656 C 106.550781 205.707031 104.039062 206.371094 101.695312 207.609375 C 99.351562 208.84375 97.261719 210.941406 95.417969 213.886719 C 95.316406 214.097656 95.167969 214.136719 94.980469 214 C 94.796875 213.875 94.757812 213.675781 94.867188 213.414062 C 96.761719 210.363281 98.910156 208.199219 101.304688 206.9375 C 103.699219 205.675781 106.269531 204.988281 109.003906 204.886719 C 111.742188 204.785156 114.625 205.085938 117.652344 205.796875 C 120.683594 206.507812 123.769531 207.308594 126.929688 208.203125 C 129.824219 209.101562 132.746094 209.890625 135.691406 210.574219 C 138.640625 211.261719 141.574219 211.695312 144.496094 211.875 C 147.414062 212.0625 150.335938 211.9375 153.257812 211.523438 C 156.179688 211.101562 159.113281 210.234375 162.058594 208.914062 C 163.902344 208.074219 165.679688 207.058594 167.390625 205.871094 C 169.097656 204.6875 170.875 203.253906 172.71875 201.566406 C 171.820312 200.78125 171.21875 199.792969 170.898438 198.609375 C 170.585938 197.421875 170.714844 196.097656 171.296875 194.625 C 172.035156 192.835938 172.929688 191.636719 173.980469 191.03125 C 175.03125 190.425781 175.890625 190.371094 176.550781 190.871094 C 177.210938 191.371094 177.460938 192.421875 177.300781 194.027344 C 177.152344 195.648438 176.253906 197.769531 174.628906 200.402344 Z M 173.992188 200.003906 C 175.46875 197.632812 176.28125 195.78125 176.441406 194.4375 C 176.601562 193.09375 176.441406 192.226562 175.964844 191.832031 C 175.492188 191.433594 174.882812 191.503906 174.148438 192.027344 C 173.410156 192.554688 172.886719 193.476562 172.566406 194.789062 C 172.300781 195.839844 172.289062 196.832031 172.527344 197.75 C 172.769531 198.679688 173.257812 199.429688 173.992188 200.003906 Z M 200.214844 217.539062 C 201.949219 216.011719 203.648438 214.65625 205.304688 213.46875 C 206.964844 212.285156 208.636719 211.324219 210.320312 210.585938 C 213.269531 209.214844 216.226562 208.3125 219.207031 207.863281 C 222.179688 207.417969 225.160156 207.300781 228.128906 207.511719 C 231.101562 207.722656 234.082031 208.183594 237.054688 208.894531 C 240.027344 209.605469 243.019531 210.40625 246.015625 211.304688 C 249.066406 212.203125 252.070312 213.003906 255.015625 213.714844 C 257.964844 214.425781 260.78125 214.726562 263.464844 214.625 C 266.148438 214.519531 268.660156 213.847656 271.003906 212.613281 C 273.351562 211.375 275.4375 209.28125 277.285156 206.332031 C 277.386719 206.121094 277.535156 206.082031 277.71875 206.21875 C 277.90625 206.351562 277.945312 206.546875 277.835938 206.808594 C 275.9375 209.863281 273.792969 212.023438 271.398438 213.285156 C 269 214.546875 266.433594 215.230469 263.695312 215.335938 C 260.960938 215.441406 258.078125 215.136719 255.046875 214.425781 C 252.019531 213.714844 248.929688 212.914062 245.773438 212.015625 C 242.824219 211.117188 239.890625 210.332031 236.972656 209.644531 C 234.050781 208.960938 231.128906 208.511719 228.207031 208.300781 C 225.285156 208.089844 222.351562 208.210938 219.40625 208.652344 C 216.457031 209.101562 213.539062 209.984375 210.640625 211.296875 C 208.796875 212.195312 207.074219 213.207031 205.472656 214.339844 C 203.863281 215.476562 202.140625 216.878906 200.304688 218.5625 C 198.933594 219.824219 197.671875 220.644531 196.511719 221.011719 C 195.351562 221.375 194.378906 221.363281 193.589844 220.972656 C 192.800781 220.574219 192.207031 219.800781 191.816406 218.640625 C 191.417969 217.480469 191.300781 216.03125 191.460938 214.296875 C 191.675781 211.925781 192.238281 208.964844 193.160156 205.410156 C 194.082031 201.855469 195.269531 198.121094 196.714844 194.199219 C 198.164062 190.28125 199.847656 186.335938 201.769531 182.355469 C 203.691406 178.382812 205.742188 174.765625 207.925781 171.496094 C 210.109375 168.238281 212.382812 165.507812 214.753906 163.324219 C 217.125 161.140625 219.496094 159.863281 221.859375 159.492188 C 223.019531 159.332031 223.964844 159.453125 224.703125 159.84375 C 225.441406 160.242188 225.992188 160.804688 226.363281 161.542969 C 226.726562 162.28125 226.914062 163.125 226.914062 164.066406 C 226.914062 165.015625 226.753906 165.964844 226.4375 166.910156 C 225.753906 169.070312 224.441406 171.34375 222.492188 173.738281 C 220.546875 176.136719 218.363281 178.46875 215.941406 180.730469 C 213.519531 182.992188 211.058594 185.125 208.554688 187.121094 C 206.054688 189.121094 203.933594 190.804688 202.199219 192.175781 C 200.777344 195.757812 199.417969 199.390625 198.132812 203.074219 C 196.84375 206.757812 195.800781 210.472656 195.011719 214.207031 C 194.640625 215.992188 194.511719 217.339844 194.613281 218.234375 C 194.71875 219.132812 195.023438 219.671875 195.523438 219.855469 C 196.023438 220.042969 196.671875 219.921875 197.457031 219.503906 C 198.234375 219.089844 199.15625 218.429688 200.214844 217.539062 Z M 202.738281 190.691406 C 203.371094 190.214844 204.320312 189.480469 205.582031 188.480469 C 206.84375 187.480469 208.253906 186.335938 209.804688 185.046875 C 211.351562 183.757812 212.960938 182.351562 214.621094 180.824219 C 216.28125 179.300781 217.84375 177.730469 219.316406 176.128906 C 220.789062 174.523438 222.089844 172.921875 223.222656 171.3125 C 224.359375 169.703125 225.160156 168.191406 225.632812 166.769531 C 225.84375 166.035156 225.972656 165.246094 226.03125 164.398438 C 226.082031 163.5625 225.992188 162.8125 225.753906 162.152344 C 225.515625 161.492188 225.105469 161.003906 224.53125 160.691406 C 223.949219 160.378906 223.160156 160.378906 222.160156 160.691406 C 220.839844 161.113281 219.515625 161.964844 218.175781 163.261719 C 216.832031 164.546875 215.53125 166.089844 214.269531 167.878906 C 213.007812 169.664062 211.796875 171.632812 210.636719 173.757812 C 209.476562 175.890625 208.398438 178 207.402344 180.074219 C 206.402344 182.15625 205.503906 184.128906 204.71875 185.996094 C 203.921875 187.859375 203.261719 189.421875 202.738281 190.691406 Z M 202.738281 190.691406 " fill-opacity="1" fill-rule="nonzero"/></g><g fill="#a6935f" fill-opacity="1"><g transform="translate(111.13808, 232.822766)"><g><path d="M 7.421875 -4.09375 C 7.660156 -4.25 7.847656 -4.375 7.984375 -4.46875 C 8.128906 -4.570312 8.242188 -4.65625 8.328125 -4.71875 C 8.421875 -4.789062 8.484375 -4.847656 8.515625 -4.890625 C 9.148438 -3.929688 9.007812 -3.148438 8.09375 -2.546875 L 5.140625 -0.578125 C 4.640625 -0.242188 4.234375 0.0546875 3.921875 0.328125 C 3.609375 0.597656 3.390625 0.875 3.265625 1.15625 C 3.148438 1.4375 3.128906 1.726562 3.203125 2.03125 C 3.285156 2.34375 3.460938 2.707031 3.734375 3.125 C 3.867188 3.332031 3.988281 3.507812 4.09375 3.65625 C 4.207031 3.8125 4.300781 3.941406 4.375 4.046875 C 4.46875 4.179688 4.5625 4.296875 4.65625 4.390625 L 4.578125 4.421875 C 4.453125 4.515625 4.300781 4.570312 4.125 4.59375 C 3.945312 4.625 3.765625 4.617188 3.578125 4.578125 C 3.390625 4.535156 3.195312 4.441406 3 4.296875 C 2.800781 4.160156 2.617188 3.96875 2.453125 3.71875 C 2.046875 3.09375 1.769531 2.53125 1.625 2.03125 C 1.488281 1.539062 1.492188 1.078125 1.640625 0.640625 C 1.785156 0.203125 2.078125 -0.222656 2.515625 -0.640625 C 2.953125 -1.066406 3.539062 -1.523438 4.28125 -2.015625 Z M 7.421875 -4.09375 "/></g></g></g><g fill="#a6935f" fill-opacity="1"><g transform="translate(116.97309, 241.354221)"><g><path d="M 6.765625 6.5 C 6.710938 6.582031 6.664062 6.664062 6.625 6.75 C 6.59375 6.832031 6.5625 6.910156 6.53125 6.984375 C 6.488281 7.066406 6.441406 7.144531 6.390625 7.21875 C 6.148438 7.050781 5.957031 6.867188 5.8125 6.671875 C 5.6875 6.503906 5.59375 6.296875 5.53125 6.046875 C 5.476562 5.804688 5.519531 5.546875 5.65625 5.265625 C 5.726562 5.140625 5.851562 4.894531 6.03125 4.53125 C 6.207031 4.164062 6.425781 3.734375 6.6875 3.234375 L 4.078125 0.25 C 3.535156 0.4375 3.070312 0.597656 2.6875 0.734375 C 2.3125 0.867188 2.054688 0.96875 1.921875 1.03125 C 1.609375 1.113281 1.335938 1.113281 1.109375 1.03125 C 0.878906 0.945312 0.691406 0.832031 0.546875 0.6875 C 0.347656 0.5 0.191406 0.28125 0.078125 0.03125 C 0.160156 -0.0078125 0.242188 -0.0390625 0.328125 -0.0625 C 0.398438 -0.09375 0.476562 -0.117188 0.5625 -0.140625 C 0.644531 -0.171875 0.738281 -0.203125 0.84375 -0.234375 C 1.007812 -0.296875 1.300781 -0.398438 1.71875 -0.546875 C 2.132812 -0.691406 2.609375 -0.859375 3.140625 -1.046875 C 3.679688 -1.242188 4.25 -1.445312 4.84375 -1.65625 C 5.445312 -1.863281 6.019531 -2.0625 6.5625 -2.25 C 7.101562 -2.445312 7.578125 -2.617188 7.984375 -2.765625 C 8.398438 -2.910156 8.695312 -3.007812 8.875 -3.0625 C 9.144531 -3.164062 9.375 -3.222656 9.5625 -3.234375 C 9.757812 -3.253906 9.925781 -3.25 10.0625 -3.21875 C 10.195312 -3.1875 10.304688 -3.132812 10.390625 -3.0625 C 10.484375 -3 10.5625 -2.929688 10.625 -2.859375 C 10.6875 -2.796875 10.742188 -2.71875 10.796875 -2.625 C 10.847656 -2.53125 10.878906 -2.410156 10.890625 -2.265625 C 10.898438 -2.128906 10.882812 -1.96875 10.84375 -1.78125 C 10.8125 -1.59375 10.722656 -1.367188 10.578125 -1.109375 C 10.503906 -0.953125 10.367188 -0.675781 10.171875 -0.28125 C 9.972656 0.101562 9.742188 0.550781 9.484375 1.0625 C 9.222656 1.570312 8.953125 2.113281 8.671875 2.6875 C 8.390625 3.257812 8.117188 3.796875 7.859375 4.296875 C 7.609375 4.804688 7.378906 5.257812 7.171875 5.65625 C 6.972656 6.050781 6.835938 6.332031 6.765625 6.5 Z M 7.375 1.921875 C 7.601562 1.472656 7.820312 1.035156 8.03125 0.609375 C 8.25 0.179688 8.453125 -0.195312 8.640625 -0.53125 C 8.828125 -0.925781 9.019531 -1.296875 9.21875 -1.640625 C 8.84375 -1.503906 8.445312 -1.363281 8.03125 -1.21875 C 7.675781 -1.082031 7.273438 -0.929688 6.828125 -0.765625 C 6.390625 -0.597656 5.929688 -0.425781 5.453125 -0.25 Z M 7.375 1.921875 "/></g></g></g><g fill="#a6935f" fill-opacity="1"><g transform="translate(126.336187, 251.433591)"><g><path d="M 6.484375 3.609375 L 6.421875 3.671875 C 6.210938 3.921875 6.003906 4.078125 5.796875 4.140625 C 5.597656 4.210938 5.394531 4.222656 5.1875 4.171875 C 5 4.128906 4.8125 4.039062 4.625 3.90625 C 4.445312 3.769531 4.285156 3.644531 4.140625 3.53125 C 3.453125 3.007812 2.921875 2.5 2.546875 2 C 2.171875 1.507812 1.945312 1 1.875 0.46875 C 1.8125 -0.0625 1.898438 -0.617188 2.140625 -1.203125 C 2.390625 -1.796875 2.816406 -2.441406 3.421875 -3.140625 L 5.125 -5.15625 C 5.539062 -5.632812 5.945312 -5.945312 6.34375 -6.09375 C 6.53125 -6.175781 6.710938 -6.210938 6.890625 -6.203125 C 7.066406 -6.203125 7.253906 -6.171875 7.453125 -6.109375 C 7.578125 -6.054688 7.695312 -6 7.8125 -5.9375 C 7.9375 -5.875 8.0625 -5.804688 8.1875 -5.734375 C 8.34375 -5.617188 8.503906 -5.492188 8.671875 -5.359375 C 8.835938 -5.234375 9.015625 -5.09375 9.203125 -4.9375 L 10.140625 -4.140625 C 10.585938 -3.753906 10.914062 -3.476562 11.125 -3.3125 C 11.332031 -3.15625 11.472656 -3.0625 11.546875 -3.03125 L 11.5625 -3.015625 L 11.640625 -2.953125 L 11.59375 -2.890625 C 11.382812 -2.648438 11.175781 -2.5 10.96875 -2.4375 C 10.78125 -2.363281 10.578125 -2.347656 10.359375 -2.390625 C 10.148438 -2.441406 9.960938 -2.523438 9.796875 -2.640625 C 9.628906 -2.765625 9.460938 -2.894531 9.296875 -3.03125 L 7.484375 -4.578125 C 7.429688 -4.609375 7.382812 -4.628906 7.34375 -4.640625 C 7.3125 -4.660156 7.285156 -4.675781 7.265625 -4.6875 C 7.191406 -4.707031 7.132812 -4.703125 7.09375 -4.671875 C 7.03125 -4.671875 6.96875 -4.644531 6.90625 -4.59375 C 6.851562 -4.539062 6.789062 -4.472656 6.71875 -4.390625 L 5.65625 -3.046875 L 8.265625 -0.8125 C 7.992188 -0.5 7.6875 -0.320312 7.34375 -0.28125 C 7.007812 -0.238281 6.675781 -0.359375 6.34375 -0.640625 L 4.75 -2.015625 C 4.320312 -1.554688 4.007812 -1.132812 3.8125 -0.75 C 3.625 -0.363281 3.535156 -0.00390625 3.546875 0.328125 C 3.566406 0.671875 3.6875 1 3.90625 1.3125 C 4.125 1.625 4.425781 1.945312 4.8125 2.28125 C 5.269531 2.664062 5.628906 2.960938 5.890625 3.171875 C 6.160156 3.378906 6.320312 3.5 6.375 3.53125 L 6.40625 3.5625 Z M 6.484375 3.609375 "/></g></g></g><g fill="#a6935f" fill-opacity="1"><g transform="translate(135.129305, 258.61068)"><g><path d="M 4.75 1.453125 C 4.601562 1.691406 4.484375 1.882812 4.390625 2.03125 C 4.296875 2.1875 4.226562 2.3125 4.1875 2.40625 C 4.125 2.507812 4.082031 2.582031 4.0625 2.625 C 3.570312 2.3125 3.265625 1.96875 3.140625 1.59375 C 3.023438 1.226562 3.113281 0.8125 3.40625 0.34375 L 7.109375 -5.328125 L 4.53125 -7 C 4.757812 -7.351562 5.039062 -7.570312 5.375 -7.65625 C 5.71875 -7.75 6.066406 -7.675781 6.421875 -7.4375 L 11.90625 -3.890625 C 11.664062 -3.535156 11.378906 -3.316406 11.046875 -3.234375 C 10.710938 -3.148438 10.367188 -3.222656 10.015625 -3.453125 L 8.546875 -4.40625 Z M 4.75 1.453125 "/></g></g></g><g fill="#a6935f" fill-opacity="1"><g transform="translate(145.217769, 264.741264)"><g><path d="M 1.21875 -0.90625 L 4.296875 -6.984375 C 4.546875 -7.484375 4.859375 -7.769531 5.234375 -7.84375 C 5.617188 -7.925781 6.070312 -7.835938 6.59375 -7.578125 C 6.550781 -7.523438 6.5 -7.457031 6.4375 -7.375 C 6.382812 -7.28125 6.316406 -7.160156 6.234375 -7.015625 C 6.148438 -6.867188 6.046875 -6.664062 5.921875 -6.40625 L 2.828125 -0.328125 C 2.578125 0.160156 2.265625 0.445312 1.890625 0.53125 C 1.515625 0.625 1.070312 0.539062 0.5625 0.28125 C 0.59375 0.238281 0.632812 0.171875 0.6875 0.078125 C 0.75 -0.015625 0.816406 -0.140625 0.890625 -0.296875 C 0.972656 -0.460938 1.082031 -0.664062 1.21875 -0.90625 Z M 1.21875 -0.90625 "/></g></g></g><g fill="#a6935f" fill-opacity="1"><g transform="translate(151.54237, 267.837615)"><g><path d="M 4.953125 0.421875 C 4.847656 0.679688 4.765625 0.894531 4.703125 1.0625 C 4.648438 1.226562 4.613281 1.363281 4.59375 1.46875 C 4.5625 1.570312 4.539062 1.648438 4.53125 1.703125 C 3.988281 1.503906 3.613281 1.234375 3.40625 0.890625 C 3.207031 0.554688 3.203125 0.128906 3.390625 -0.390625 L 5.8125 -6.734375 L 2.9375 -7.8125 C 3.082031 -8.195312 3.3125 -8.46875 3.625 -8.625 C 3.9375 -8.78125 4.289062 -8.785156 4.6875 -8.640625 L 10.8125 -6.328125 C 10.65625 -5.929688 10.421875 -5.65625 10.109375 -5.5 C 9.804688 -5.351562 9.453125 -5.359375 9.046875 -5.515625 L 7.40625 -6.125 Z M 4.953125 0.421875 "/></g></g></g><g fill="#a6935f" fill-opacity="1"><g transform="translate(162.70341, 271.682269)"><g><path d="M 1.015625 -1.140625 L 2.71875 -7.734375 C 2.863281 -8.285156 3.109375 -8.632812 3.453125 -8.78125 C 3.804688 -8.9375 4.265625 -8.941406 4.828125 -8.796875 C 4.804688 -8.742188 4.773438 -8.671875 4.734375 -8.578125 C 4.703125 -8.472656 4.660156 -8.335938 4.609375 -8.171875 C 4.554688 -8.003906 4.5 -7.785156 4.4375 -7.515625 L 2.6875 -0.921875 C 2.550781 -0.390625 2.304688 -0.0390625 1.953125 0.125 C 1.609375 0.289062 1.160156 0.300781 0.609375 0.15625 C 0.628906 0.101562 0.660156 0.03125 0.703125 -0.0625 C 0.742188 -0.164062 0.785156 -0.300781 0.828125 -0.46875 C 0.867188 -0.644531 0.929688 -0.867188 1.015625 -1.140625 Z M 1.015625 -1.140625 "/></g></g></g><g fill="#a6935f" fill-opacity="1"><g transform="translate(169.565696, 273.416428)"><g><path d="M 9.375 0.484375 C 9.394531 0.578125 9.410156 0.664062 9.421875 0.75 C 9.441406 0.84375 9.460938 0.925781 9.484375 1 C 9.515625 1.09375 9.535156 1.179688 9.546875 1.265625 C 9.265625 1.304688 9.003906 1.296875 8.765625 1.234375 C 8.554688 1.191406 8.347656 1.097656 8.140625 0.953125 C 7.941406 0.804688 7.804688 0.578125 7.734375 0.265625 C 7.691406 0.140625 7.617188 -0.117188 7.515625 -0.515625 C 7.421875 -0.921875 7.304688 -1.394531 7.171875 -1.9375 L 3.234375 -2.46875 C 2.960938 -1.988281 2.722656 -1.566406 2.515625 -1.203125 C 2.316406 -0.847656 2.1875 -0.609375 2.125 -0.484375 C 1.945312 -0.210938 1.742188 -0.0351562 1.515625 0.046875 C 1.285156 0.128906 1.066406 0.171875 0.859375 0.171875 C 0.597656 0.148438 0.332031 0.0859375 0.0625 -0.015625 C 0.101562 -0.0976562 0.148438 -0.179688 0.203125 -0.265625 C 0.234375 -0.328125 0.273438 -0.394531 0.328125 -0.46875 C 0.378906 -0.550781 0.429688 -0.640625 0.484375 -0.734375 C 0.566406 -0.878906 0.71875 -1.144531 0.9375 -1.53125 C 1.15625 -1.925781 1.40625 -2.367188 1.6875 -2.859375 C 1.96875 -3.359375 2.269531 -3.882812 2.59375 -4.4375 C 2.914062 -4.988281 3.210938 -5.515625 3.484375 -6.015625 C 3.753906 -6.515625 4 -6.953125 4.21875 -7.328125 C 4.445312 -7.703125 4.609375 -7.96875 4.703125 -8.125 C 4.828125 -8.382812 4.957031 -8.578125 5.09375 -8.703125 C 5.238281 -8.835938 5.367188 -8.9375 5.484375 -9 C 5.609375 -9.070312 5.722656 -9.113281 5.828125 -9.125 C 5.941406 -9.132812 6.046875 -9.132812 6.140625 -9.125 C 6.234375 -9.113281 6.332031 -9.085938 6.4375 -9.046875 C 6.539062 -9.003906 6.640625 -8.929688 6.734375 -8.828125 C 6.835938 -8.734375 6.929688 -8.601562 7.015625 -8.4375 C 7.109375 -8.28125 7.191406 -8.0625 7.265625 -7.78125 C 7.316406 -7.601562 7.394531 -7.300781 7.5 -6.875 C 7.601562 -6.457031 7.726562 -5.96875 7.875 -5.40625 C 8.019531 -4.851562 8.164062 -4.269531 8.3125 -3.65625 C 8.46875 -3.039062 8.617188 -2.457031 8.765625 -1.90625 C 8.910156 -1.351562 9.035156 -0.859375 9.140625 -0.421875 C 9.242188 0.015625 9.320312 0.316406 9.375 0.484375 Z M 6.828125 -3.390625 C 6.703125 -3.867188 6.582031 -4.335938 6.46875 -4.796875 C 6.351562 -5.265625 6.257812 -5.679688 6.1875 -6.046875 C 6.0625 -6.484375 5.960938 -6.894531 5.890625 -7.28125 C 5.691406 -6.9375 5.484375 -6.566406 5.265625 -6.171875 C 5.085938 -5.835938 4.882812 -5.460938 4.65625 -5.046875 C 4.4375 -4.628906 4.203125 -4.207031 3.953125 -3.78125 Z M 6.828125 -3.390625 "/></g></g></g><g fill="#a6935f" fill-opacity="1"><g transform="translate(183.174068, 274.835683)"><g/></g></g><g fill="#a6935f" fill-opacity="1"><g transform="translate(190.367259, 274.894271)"><g><path d="M 2.25 -1.59375 C 2.28125 -1.300781 2.304688 -1.066406 2.328125 -0.890625 C 2.347656 -0.722656 2.367188 -0.585938 2.390625 -0.484375 C 2.421875 -0.367188 2.441406 -0.289062 2.453125 -0.25 C 1.878906 -0.1875 1.429688 -0.257812 1.109375 -0.46875 C 0.785156 -0.675781 0.597656 -1.054688 0.546875 -1.609375 L -0.03125 -7.5 C -0.0703125 -7.9375 -0.03125 -8.3125 0.09375 -8.625 C 0.21875 -8.945312 0.40625 -9.210938 0.65625 -9.421875 C 0.914062 -9.640625 1.234375 -9.804688 1.609375 -9.921875 C 1.984375 -10.035156 2.394531 -10.128906 2.84375 -10.203125 C 3.125 -10.242188 3.425781 -10.257812 3.75 -10.25 C 4.082031 -10.238281 4.414062 -10.195312 4.75 -10.125 C 5.082031 -10.050781 5.398438 -9.941406 5.703125 -9.796875 C 6.003906 -9.660156 6.273438 -9.476562 6.515625 -9.25 C 6.765625 -9.03125 6.960938 -8.769531 7.109375 -8.46875 C 7.265625 -8.164062 7.351562 -7.816406 7.375 -7.421875 C 7.414062 -6.878906 7.289062 -6.375 7 -5.90625 C 6.71875 -5.445312 6.273438 -5.097656 5.671875 -4.859375 C 5.890625 -4.796875 6.082031 -4.691406 6.25 -4.546875 C 6.414062 -4.398438 6.566406 -4.21875 6.703125 -4 C 6.835938 -3.78125 6.976562 -3.539062 7.125 -3.28125 C 7.269531 -3.03125 7.425781 -2.769531 7.59375 -2.5 C 7.71875 -2.300781 7.84375 -2.117188 7.96875 -1.953125 C 8.101562 -1.796875 8.226562 -1.660156 8.34375 -1.546875 C 8.476562 -1.398438 8.609375 -1.28125 8.734375 -1.1875 C 8.660156 -1.101562 8.578125 -1.023438 8.484375 -0.953125 C 8.390625 -0.898438 8.273438 -0.847656 8.140625 -0.796875 C 8.003906 -0.753906 7.835938 -0.738281 7.640625 -0.75 C 7.421875 -0.757812 7.210938 -0.804688 7.015625 -0.890625 C 6.816406 -0.972656 6.613281 -1.113281 6.40625 -1.3125 C 6.195312 -1.507812 5.96875 -1.769531 5.71875 -2.09375 C 5.476562 -2.425781 5.195312 -2.847656 4.875 -3.359375 C 4.675781 -3.628906 4.457031 -3.832031 4.21875 -3.96875 C 3.988281 -4.101562 3.707031 -4.203125 3.375 -4.265625 C 3.320312 -4.273438 3.269531 -4.28125 3.21875 -4.28125 C 3.164062 -4.289062 3.113281 -4.300781 3.0625 -4.3125 C 3 -4.3125 2.90625 -4.316406 2.78125 -4.328125 C 2.664062 -4.347656 2.546875 -4.363281 2.421875 -4.375 C 2.273438 -4.382812 2.128906 -4.394531 1.984375 -4.40625 Z M 2.984375 -8.828125 C 2.703125 -8.765625 2.472656 -8.691406 2.296875 -8.609375 C 2.117188 -8.523438 1.976562 -8.429688 1.875 -8.328125 C 1.78125 -8.222656 1.710938 -8.109375 1.671875 -7.984375 C 1.640625 -7.859375 1.628906 -7.734375 1.640625 -7.609375 C 1.660156 -7.484375 1.675781 -7.320312 1.6875 -7.125 C 1.707031 -6.925781 1.726562 -6.722656 1.75 -6.515625 C 1.78125 -6.304688 1.804688 -6.113281 1.828125 -5.9375 C 1.847656 -5.769531 1.859375 -5.660156 1.859375 -5.609375 C 2.085938 -5.578125 2.3125 -5.554688 2.53125 -5.546875 C 2.71875 -5.535156 2.921875 -5.53125 3.140625 -5.53125 C 3.367188 -5.53125 3.59375 -5.539062 3.8125 -5.5625 C 4.382812 -5.625 4.828125 -5.785156 5.140625 -6.046875 C 5.460938 -6.304688 5.628906 -6.707031 5.640625 -7.25 C 5.648438 -7.601562 5.570312 -7.894531 5.40625 -8.125 C 5.238281 -8.363281 5.023438 -8.539062 4.765625 -8.65625 C 4.503906 -8.769531 4.210938 -8.84375 3.890625 -8.875 C 3.578125 -8.90625 3.273438 -8.890625 2.984375 -8.828125 Z M 2.984375 -8.828125 "/></g></g></g><g fill="#a6935f" fill-opacity="1"><g transform="translate(203.285692, 273.220348)"><g><path d="M 0.390625 -1.46875 L -1.046875 -8.125 C -1.171875 -8.675781 -1.109375 -9.101562 -0.859375 -9.40625 C -0.609375 -9.707031 -0.203125 -9.914062 0.359375 -10.03125 C 0.359375 -9.96875 0.363281 -9.882812 0.375 -9.78125 C 0.394531 -9.6875 0.421875 -9.550781 0.453125 -9.375 C 0.484375 -9.195312 0.53125 -8.972656 0.59375 -8.703125 L 2 -2.03125 C 2.113281 -1.488281 2.050781 -1.066406 1.8125 -0.765625 C 1.570312 -0.460938 1.171875 -0.25 0.609375 -0.125 C 0.609375 -0.1875 0.601562 -0.273438 0.59375 -0.390625 C 0.582031 -0.484375 0.554688 -0.617188 0.515625 -0.796875 C 0.472656 -0.972656 0.429688 -1.195312 0.390625 -1.46875 Z M 0.390625 -1.46875 "/></g></g></g><g fill="#a6935f" fill-opacity="1"><g transform="translate(210.146214, 271.648966)"><g><path d="M 3.96875 -7.953125 C 3.90625 -7.847656 3.828125 -7.679688 3.734375 -7.453125 C 3.640625 -7.222656 3.53125 -6.957031 3.40625 -6.65625 C 3.28125 -6.351562 3.140625 -6.023438 2.984375 -5.671875 C 2.828125 -5.328125 2.679688 -4.972656 2.546875 -4.609375 C 2.191406 -3.804688 1.804688 -2.914062 1.390625 -1.9375 L 4.8125 -3.0625 C 5.019531 -3.125 5.226562 -3.175781 5.4375 -3.21875 C 5.644531 -3.269531 5.847656 -3.28125 6.046875 -3.25 C 6.265625 -3.207031 6.453125 -3.117188 6.609375 -2.984375 C 6.765625 -2.816406 6.890625 -2.59375 6.984375 -2.3125 L 7 -2.234375 L 6.9375 -2.21875 C 6.9375 -2.21875 6.925781 -2.210938 6.90625 -2.203125 C 6.832031 -2.191406 6.671875 -2.148438 6.421875 -2.078125 C 6.171875 -2.015625 5.753906 -1.890625 5.171875 -1.703125 L 0.359375 -0.125 C 0.316406 -0.175781 0.28125 -0.238281 0.25 -0.3125 C 0.164062 -0.445312 0.09375 -0.613281 0.03125 -0.8125 C -0.0820312 -1.15625 -0.148438 -1.457031 -0.171875 -1.71875 C -0.203125 -1.988281 -0.195312 -2.234375 -0.15625 -2.453125 C -0.113281 -2.679688 -0.0546875 -2.894531 0.015625 -3.09375 C 0.0859375 -3.289062 0.164062 -3.488281 0.25 -3.6875 L 2.859375 -9.734375 L -0.265625 -8.6875 C -0.472656 -8.625 -0.679688 -8.566406 -0.890625 -8.515625 C -1.097656 -8.472656 -1.300781 -8.472656 -1.5 -8.515625 C -1.71875 -8.535156 -1.90625 -8.617188 -2.0625 -8.765625 C -2.226562 -8.921875 -2.359375 -9.148438 -2.453125 -9.453125 L -2.484375 -9.515625 L -2.375 -9.515625 L -2.359375 -9.53125 C -2.285156 -9.550781 -2.125 -9.59375 -1.875 -9.65625 C -1.625 -9.726562 -1.210938 -9.859375 -0.640625 -10.046875 L 3.859375 -11.53125 C 3.890625 -11.457031 3.925781 -11.378906 3.96875 -11.296875 C 4.007812 -11.242188 4.046875 -11.175781 4.078125 -11.09375 C 4.109375 -11.019531 4.140625 -10.929688 4.171875 -10.828125 C 4.273438 -10.515625 4.335938 -10.226562 4.359375 -9.96875 C 4.390625 -9.707031 4.382812 -9.457031 4.34375 -9.21875 C 4.3125 -8.988281 4.253906 -8.769531 4.171875 -8.5625 C 4.097656 -8.363281 4.03125 -8.160156 3.96875 -7.953125 Z M 3.96875 -7.953125 "/></g></g></g><g fill="#a6935f" fill-opacity="1"><g transform="translate(221.133501, 267.747045)"><g><path d="M 2.875 -8.40625 C 2.832031 -8.289062 2.78125 -8.113281 2.71875 -7.875 C 2.65625 -7.632812 2.582031 -7.359375 2.5 -7.046875 C 2.414062 -6.734375 2.320312 -6.390625 2.21875 -6.015625 C 2.113281 -5.648438 2.007812 -5.285156 1.90625 -4.921875 C 1.675781 -4.054688 1.414062 -3.113281 1.125 -2.09375 L 4.375 -3.65625 C 4.570312 -3.75 4.769531 -3.832031 4.96875 -3.90625 C 5.164062 -3.988281 5.367188 -4.023438 5.578125 -4.015625 C 5.796875 -4.003906 5.988281 -3.941406 6.15625 -3.828125 C 6.332031 -3.691406 6.488281 -3.488281 6.625 -3.21875 L 6.65625 -3.140625 L 6.578125 -3.109375 C 6.578125 -3.109375 6.570312 -3.101562 6.5625 -3.09375 C 6.476562 -3.070312 6.316406 -3.007812 6.078125 -2.90625 C 5.835938 -2.8125 5.445312 -2.632812 4.90625 -2.375 L 0.34375 -0.15625 C 0.289062 -0.207031 0.242188 -0.269531 0.203125 -0.34375 C 0.109375 -0.457031 0.015625 -0.609375 -0.078125 -0.796875 C -0.234375 -1.128906 -0.335938 -1.425781 -0.390625 -1.6875 C -0.453125 -1.957031 -0.476562 -2.203125 -0.46875 -2.421875 C -0.457031 -2.648438 -0.425781 -2.863281 -0.375 -3.0625 C -0.332031 -3.269531 -0.28125 -3.476562 -0.21875 -3.6875 L 1.546875 -10.03125 L -1.421875 -8.59375 C -1.617188 -8.5 -1.816406 -8.410156 -2.015625 -8.328125 C -2.210938 -8.253906 -2.410156 -8.21875 -2.609375 -8.21875 C -2.828125 -8.21875 -3.019531 -8.285156 -3.1875 -8.421875 C -3.375 -8.546875 -3.535156 -8.75 -3.671875 -9.03125 L -3.71875 -9.09375 L -3.625 -9.125 L -3.609375 -9.125 C -3.523438 -9.15625 -3.363281 -9.21875 -3.125 -9.3125 C -2.882812 -9.414062 -2.492188 -9.601562 -1.953125 -9.875 L 2.3125 -11.9375 C 2.34375 -11.863281 2.382812 -11.796875 2.4375 -11.734375 C 2.488281 -11.679688 2.535156 -11.617188 2.578125 -11.546875 C 2.617188 -11.472656 2.660156 -11.390625 2.703125 -11.296875 C 2.847656 -10.992188 2.953125 -10.710938 3.015625 -10.453125 C 3.078125 -10.203125 3.101562 -9.957031 3.09375 -9.71875 C 3.082031 -9.488281 3.054688 -9.265625 3.015625 -9.046875 C 2.972656 -8.835938 2.925781 -8.625 2.875 -8.40625 Z M 2.875 -8.40625 "/></g></g></g><g fill="#a6935f" fill-opacity="1"><g transform="translate(231.501168, 262.42572)"><g><path d="M 5.265625 -5.21875 L 5.328125 -5.140625 C 5.503906 -4.867188 5.585938 -4.625 5.578125 -4.40625 C 5.609375 -4.195312 5.566406 -4.003906 5.453125 -3.828125 C 5.359375 -3.648438 5.21875 -3.492188 5.03125 -3.359375 C 4.851562 -3.222656 4.691406 -3.097656 4.546875 -2.984375 C 3.847656 -2.484375 3.207031 -2.117188 2.625 -1.890625 C 2.050781 -1.671875 1.5 -1.597656 0.96875 -1.671875 C 0.445312 -1.742188 -0.0546875 -1.984375 -0.546875 -2.390625 C -1.046875 -2.796875 -1.550781 -3.382812 -2.0625 -4.15625 L -3.515625 -6.375 C -3.859375 -6.90625 -4.050781 -7.375 -4.09375 -7.78125 C -4.113281 -8 -4.09375 -8.191406 -4.03125 -8.359375 C -3.976562 -8.523438 -3.894531 -8.691406 -3.78125 -8.859375 C -3.707031 -8.960938 -3.625 -9.0625 -3.53125 -9.15625 C -3.4375 -9.257812 -3.332031 -9.359375 -3.21875 -9.453125 C -3.0625 -9.578125 -2.894531 -9.703125 -2.71875 -9.828125 C -2.550781 -9.960938 -2.367188 -10.09375 -2.171875 -10.21875 L -1.140625 -10.90625 C -0.640625 -11.226562 -0.285156 -11.46875 -0.078125 -11.625 C 0.117188 -11.78125 0.25 -11.882812 0.3125 -11.9375 L 0.34375 -11.953125 L 0.421875 -12 L 0.453125 -11.9375 C 0.628906 -11.664062 0.722656 -11.425781 0.734375 -11.21875 C 0.734375 -11 0.6875 -10.796875 0.59375 -10.609375 C 0.476562 -10.441406 0.34375 -10.289062 0.1875 -10.15625 C 0.03125 -10.019531 -0.140625 -9.890625 -0.328125 -9.765625 L -2.3125 -8.46875 C -2.363281 -8.414062 -2.398438 -8.375 -2.421875 -8.34375 C -2.441406 -8.320312 -2.457031 -8.300781 -2.46875 -8.28125 C -2.507812 -8.21875 -2.523438 -8.160156 -2.515625 -8.109375 C -2.523438 -8.054688 -2.507812 -7.992188 -2.46875 -7.921875 C -2.4375 -7.847656 -2.394531 -7.769531 -2.34375 -7.6875 L -1.34375 -6.265625 L 1.515625 -8.15625 C 1.742188 -7.8125 1.828125 -7.46875 1.765625 -7.125 C 1.710938 -6.78125 1.507812 -6.492188 1.15625 -6.265625 L -0.609375 -5.109375 C -0.285156 -4.578125 0.03125 -4.164062 0.34375 -3.875 C 0.664062 -3.59375 0.988281 -3.410156 1.3125 -3.328125 C 1.644531 -3.242188 1.988281 -3.257812 2.34375 -3.375 C 2.707031 -3.5 3.101562 -3.703125 3.53125 -3.984375 C 4.03125 -4.316406 4.414062 -4.582031 4.6875 -4.78125 C 4.957031 -4.976562 5.125 -5.101562 5.1875 -5.15625 L 5.203125 -5.171875 Z M 5.265625 -5.21875 "/></g></g></g><g fill="#a6935f" fill-opacity="1"><g transform="translate(240.807104, 255.978123)"><g><path d="M -4.9375 -6.875 C -5.132812 -7.09375 -5.285156 -7.265625 -5.390625 -7.390625 C -5.503906 -7.523438 -5.601562 -7.628906 -5.6875 -7.703125 C -5.769531 -7.785156 -5.832031 -7.84375 -5.875 -7.875 C -5 -8.613281 -4.207031 -8.566406 -3.5 -7.734375 L -1.1875 -5.046875 C -0.789062 -4.585938 -0.4375 -4.210938 -0.125 -3.921875 C 0.175781 -3.640625 0.46875 -3.457031 0.75 -3.375 C 1.039062 -3.289062 1.332031 -3.304688 1.625 -3.421875 C 1.925781 -3.546875 2.269531 -3.769531 2.65625 -4.09375 C 2.832031 -4.25 2.992188 -4.390625 3.140625 -4.515625 C 3.285156 -4.640625 3.410156 -4.742188 3.515625 -4.828125 C 3.617188 -4.929688 3.710938 -5.035156 3.796875 -5.140625 L 3.84375 -5.078125 C 3.945312 -4.960938 4.023438 -4.816406 4.078125 -4.640625 C 4.128906 -4.472656 4.140625 -4.289062 4.109375 -4.09375 C 4.085938 -3.90625 4.019531 -3.703125 3.90625 -3.484375 C 3.789062 -3.273438 3.617188 -3.078125 3.390625 -2.890625 C 2.816406 -2.398438 2.296875 -2.054688 1.828125 -1.859375 C 1.359375 -1.671875 0.898438 -1.617188 0.453125 -1.703125 C 0.00390625 -1.785156 -0.453125 -2.019531 -0.921875 -2.40625 C -1.398438 -2.800781 -1.925781 -3.335938 -2.5 -4.015625 Z M -4.9375 -6.875 "/></g></g></g><g fill="#a6935f" fill-opacity="1"><g transform="translate(248.480662, 249.152962)"><g><path d="M -5.71875 -6.265625 C -5.9375 -6.441406 -6.109375 -6.585938 -6.234375 -6.703125 C -6.359375 -6.828125 -6.457031 -6.921875 -6.53125 -6.984375 C -6.625 -7.054688 -6.695312 -7.101562 -6.75 -7.125 C -5.96875 -7.96875 -5.175781 -8.019531 -4.375 -7.28125 L -1.765625 -4.875 C -1.316406 -4.457031 -0.925781 -4.128906 -0.59375 -3.890625 C -0.257812 -3.648438 0.0546875 -3.5 0.359375 -3.4375 C 0.660156 -3.382812 0.953125 -3.4375 1.234375 -3.59375 C 1.515625 -3.75 1.828125 -4.007812 2.171875 -4.375 C 2.328125 -4.550781 2.46875 -4.707031 2.59375 -4.84375 C 2.71875 -4.976562 2.828125 -5.097656 2.921875 -5.203125 C 3.015625 -5.328125 3.097656 -5.4375 3.171875 -5.53125 L 3.234375 -5.484375 C 3.347656 -5.378906 3.4375 -5.242188 3.5 -5.078125 C 3.570312 -4.921875 3.609375 -4.742188 3.609375 -4.546875 C 3.609375 -4.359375 3.5625 -4.148438 3.46875 -3.921875 C 3.382812 -3.703125 3.238281 -3.484375 3.03125 -3.265625 C 2.519531 -2.710938 2.039062 -2.3125 1.59375 -2.0625 C 1.15625 -1.8125 0.707031 -1.703125 0.25 -1.734375 C -0.207031 -1.773438 -0.691406 -1.957031 -1.203125 -2.28125 C -1.722656 -2.613281 -2.3125 -3.082031 -2.96875 -3.6875 Z M -5.71875 -6.265625 "/></g></g></g><g fill="#a6935f" fill-opacity="1"><g transform="translate(255.429273, 241.483085)"><g><path d="M -5.140625 -9.921875 C -4.785156 -10.429688 -4.351562 -10.859375 -3.84375 -11.203125 C -3.332031 -11.554688 -2.773438 -11.796875 -2.171875 -11.921875 C -1.578125 -12.046875 -0.953125 -12.039062 -0.296875 -11.90625 C 0.359375 -11.769531 1.023438 -11.46875 1.703125 -11 C 2.378906 -10.53125 2.894531 -10.003906 3.25 -9.421875 C 3.613281 -8.847656 3.84375 -8.253906 3.9375 -7.640625 C 4.039062 -7.035156 4.007812 -6.4375 3.84375 -5.84375 C 3.6875 -5.25 3.429688 -4.695312 3.078125 -4.1875 C 2.734375 -3.6875 2.3125 -3.257812 1.8125 -2.90625 C 1.3125 -2.5625 0.753906 -2.328125 0.140625 -2.203125 C -0.460938 -2.078125 -1.097656 -2.082031 -1.765625 -2.21875 C -2.429688 -2.363281 -3.101562 -2.671875 -3.78125 -3.140625 C -4.457031 -3.609375 -4.96875 -4.128906 -5.3125 -4.703125 C -5.664062 -5.273438 -5.882812 -5.863281 -5.96875 -6.46875 C -6.0625 -7.082031 -6.03125 -7.6875 -5.875 -8.28125 C -5.726562 -8.875 -5.484375 -9.421875 -5.140625 -9.921875 Z M 2.09375 -4.875 C 2.300781 -5.175781 2.441406 -5.507812 2.515625 -5.875 C 2.597656 -6.25 2.585938 -6.640625 2.484375 -7.046875 C 2.390625 -7.460938 2.195312 -7.875 1.90625 -8.28125 C 1.613281 -8.6875 1.191406 -9.082031 0.640625 -9.46875 C 0.109375 -9.832031 -0.394531 -10.082031 -0.875 -10.21875 C -1.363281 -10.363281 -1.816406 -10.410156 -2.234375 -10.359375 C -2.648438 -10.304688 -3.019531 -10.175781 -3.34375 -9.96875 C -3.664062 -9.769531 -3.929688 -9.519531 -4.140625 -9.21875 C -4.347656 -8.914062 -4.488281 -8.578125 -4.5625 -8.203125 C -4.644531 -7.835938 -4.640625 -7.453125 -4.546875 -7.046875 C -4.453125 -6.640625 -4.253906 -6.226562 -3.953125 -5.8125 C -3.660156 -5.40625 -3.25 -5.019531 -2.71875 -4.65625 C -2.164062 -4.269531 -1.648438 -4.007812 -1.171875 -3.875 C -0.691406 -3.738281 -0.242188 -3.691406 0.171875 -3.734375 C 0.597656 -3.785156 0.972656 -3.910156 1.296875 -4.109375 C 1.617188 -4.316406 1.882812 -4.570312 2.09375 -4.875 Z M 2.09375 -4.875 "/></g></g></g></svg>